<?xml version="1.0" encoding="UTF-8"?>
<svg width="1440px" height="357px" viewBox="0 0 1440 357" version="1.1" xmlns="http://www.w3.org/2000/svg" xmlns:xlink="http://www.w3.org/1999/xlink">
    <defs>
        <polygon id="path-1" points="0 0.564 1003.9675 0.564 1003.9675 357.999802 0 357.999802"></polygon>
        <polygon id="path-3" points="0.137593259 0.544571664 138.114 0.544571664 138.114 139.985742 0.137593259 139.985742"></polygon>
    </defs>
    <g id="CGC-Stories" stroke="none" stroke-width="1" fill="none" fill-rule="evenodd">
        <g id="1A_Why-google-Pixel-(1248px)" transform="translate(0.000000, -5995.000000)">
            <g id="europe_high_res_8chdesign" transform="translate(-5.000000, 5957.000000)">
                <g id="Page-1" transform="translate(5.000000, 37.000000)">
                    <g id="Group-3" transform="translate(0.000000, 0.436000)">
                        <mask id="mask-2" fill="white">
                            <use xlink:href="#path-1"></use>
                        </mask>
                        <g id="Clip-2"></g>
                        <path d="M834.1755,103.8678 C833.5945,104.8788 832.7155,105.5398 831.9525,106.3208 C831.3755,106.9108 831.6305,107.3498 832.1515,107.7418 C832.7035,108.1568 833.2825,107.7608 833.3395,107.3648 C833.5085,106.2008 834.5815,105.3098 834.1755,103.8678 M883.5535,106.6228 C883.8865,106.2768 884.3295,107.1958 884.5055,106.4218 C884.6185,105.9188 884.8175,105.2888 884.0585,104.9468 C882.8695,104.4098 881.6255,104.1158 880.3685,103.7978 C879.6465,103.6138 878.9885,103.3588 878.8135,104.1578 C878.7125,104.6148 879.0255,105.3658 879.8545,105.5528 C881.1005,105.8338 882.3145,106.2568 883.5535,106.6228 M636.4885,114.5558 C638.9145,114.1388 640.9415,113.8608 642.5045,112.2748 C642.8425,111.9308 643.2795,111.5918 642.8585,111.0238 C642.4465,110.4708 642.0505,110.4258 641.3965,110.7858 C639.6955,111.7228 637.9005,112.5028 636.4885,114.5558 M933.8135,73.9678 C936.8065,73.6068 939.1935,77.4188 942.6475,74.9408 C939.8975,72.8408 936.9735,72.6768 933.8135,73.9678 M621.0415,83.9988 C621.2565,84.2438 621.4645,84.6178 621.7825,84.8078 C622.3685,85.1588 622.7375,84.6268 622.9925,84.2608 C623.9855,82.8418 624.9765,81.4538 626.5885,80.6448 C627.0955,80.3898 627.1795,79.8218 626.9965,79.3298 C626.8155,78.8458 626.1885,78.8208 625.9475,79.0278 C625.1095,79.7518 623.4165,78.9858 623.2635,79.7918 C622.9495,81.4438 621.8525,82.5108 621.0415,83.9988 M673.0685,70.0348 C673.3765,69.7898 673.6305,69.6018 673.8675,69.3968 C674.9605,68.4488 674.9705,68.4338 676.1225,69.5428 C676.3455,69.7568 676.4505,69.7418 676.6685,69.5898 C677.4445,69.0488 678.7385,68.6448 678.8975,67.9678 C679.1415,66.9308 677.8195,67.3848 677.2525,67.0958 C675.2795,66.0898 673.6135,66.2168 672.4695,67.7878 C672.0815,68.3208 671.9295,68.8108 672.2865,69.3578 C672.4515,69.6108 672.7565,69.7728 673.0685,70.0348 M903.4185,61.4458 C902.5585,61.5078 901.4795,61.1648 901.1715,62.3868 C901.0345,62.9278 901.5525,63.2938 902.0435,63.4098 C903.8515,63.8388 905.6815,64.1698 907.4795,64.6318 C908.5355,64.9028 908.4505,64.0378 908.7345,63.5448 C909.1015,62.9078 908.5895,62.5278 908.1445,62.5268 C906.4765,62.5198 905.1095,61.2818 903.4185,61.4458 M695.9785,61.2968 C697.3175,60.3918 698.5335,59.9838 698.9275,59.1748 C699.2565,58.4998 700.7805,57.5968 699.0605,56.3148 C697.8225,55.3928 696.0535,55.4158 696.0965,56.0388 C696.2205,57.8438 694.6325,57.2098 693.8045,58.0428 C695.0085,58.8468 697.2585,58.6808 695.9785,61.2968 M647.0535,46.7958 C649.1795,46.7928 650.5655,47.1828 651.7075,48.2628 C652.0525,48.5878 652.8515,48.6558 652.9395,48.0988 C653.2495,46.1418 654.6725,46.0948 656.1425,45.9368 C657.0175,45.8438 657.8835,45.5968 658.4375,44.4468 C654.6165,44.5688 650.9025,44.0208 647.0535,46.7958 M891.1135,91.5898 C890.6765,92.8908 891.8645,93.4078 892.5635,94.1688 C893.4845,95.1718 894.0235,94.7618 894.0575,93.5918 C894.1305,91.1288 894.5175,88.7228 895.0285,86.3188 C895.1785,85.6088 894.7635,84.6958 894.0385,84.5918 C893.2725,84.4818 893.0445,85.2968 893.0775,86.0138 C893.1355,87.2928 892.9045,88.3608 891.7625,89.2348 C891.1665,89.6908 890.8915,90.6208 891.1135,91.5898 M628.6895,78.9318 C633.3875,77.9708 637.7395,76.5168 640.9905,72.7068 C637.2215,73.0948 633.6125,74.0348 630.0805,75.2598 C629.6355,75.4138 628.8215,76.1378 629.1765,76.5488 C630.1185,77.6428 628.5015,77.9598 628.6895,78.9318 M947.9785,77.3048 C947.4875,76.9068 946.8385,76.3278 945.8605,76.4668 C945.0995,76.5758 944.2835,76.5238 943.6055,76.5978 C941.3575,76.8448 938.9935,75.9518 936.8095,77.2938 C936.2555,77.6338 935.8155,77.6748 935.8095,78.4468 C935.8045,79.2538 936.2615,79.3598 936.8715,79.4598 C938.0825,79.6588 939.2105,79.8298 939.6565,81.3698 C939.9385,82.3378 940.9295,82.4398 941.0025,81.2178 C941.0915,79.7458 941.9735,79.8688 942.8465,79.9788 C944.5345,80.1938 945.8375,79.3228 947.2145,78.6188 C947.6415,78.4018 948.1935,78.2918 947.9785,77.3048 M913.3505,79.9868 C910.8465,80.2198 908.7315,80.2408 906.6965,80.6598 C904.9525,81.0188 903.6715,83.4618 904.4425,84.5348 C905.4875,85.9898 906.5885,87.4148 907.7825,88.7468 C908.0955,89.0958 909.1965,89.7358 909.3285,88.8488 C909.6195,86.8828 911.7665,86.6648 912.3335,84.9658 C907.9285,82.9398 912.5175,81.9538 913.3505,79.9868 M548.8445,34.4848 C552.9135,34.4958 556.6515,32.9558 560.5615,33.5728 C555.1935,36.2848 549.0815,35.8808 543.5085,37.6998 C546.2575,37.4978 548.9255,36.6128 551.7095,37.0648 C551.5705,39.4868 549.8085,39.8388 548.0105,40.5968 C546.1985,41.3608 544.0065,39.9948 542.3235,41.9418 C544.1735,41.8098 545.7665,41.9258 547.4425,41.6378 C549.5175,41.2808 552.0185,40.4418 553.8025,41.7888 C555.1715,42.8218 556.4005,42.9518 557.8435,42.9518 C563.5865,42.9498 569.1505,42.6088 574.8215,40.8288 C580.3815,39.0838 586.4095,38.6058 592.2295,37.5638 C600.1645,36.1428 607.9515,34.2998 615.6965,32.1028 C617.6645,31.5448 617.4875,30.0998 618.8385,28.9608 C617.0225,29.0618 615.7425,28.8258 614.4885,28.4448 C614.3365,28.3988 614.1775,28.3758 614.0225,28.3418 C614.0775,28.2268 614.1745,28.1158 614.1815,27.9978 C614.2235,27.3238 614.4405,26.4518 613.3705,26.4748 C612.1765,26.4998 610.8645,27.2348 610.1275,25.5448 C610.0605,25.3908 609.2115,25.6028 608.7265,25.6028 C606.7665,25.6018 605.3435,27.0788 603.5095,27.4578 C599.3025,28.3268 594.8365,27.4228 590.7785,29.3228 C590.6365,29.3888 590.2745,29.2598 590.1865,29.1168 C589.4095,27.8548 588.2795,28.6538 587.2945,28.5658 C584.5635,28.3228 582.2365,31.5518 579.2735,29.4828 C579.0395,29.3198 578.3755,29.4668 578.1135,29.6988 C574.8775,32.5548 570.3565,31.3258 566.5345,33.7748 C567.4175,31.9228 568.7125,31.7308 569.8855,31.2628 C570.2635,31.1108 571.4685,31.1238 570.8405,30.0148 C570.1025,28.7168 564.4445,28.4468 564.3255,29.7438 C564.1655,31.5048 563.0825,31.1598 562.5095,30.8428 C561.0455,30.0328 559.7525,30.5998 558.4715,31.0168 C556.2205,31.7498 554.1285,32.9398 551.7715,33.3858 C550.8385,33.5618 549.7365,33.1548 548.8445,34.4848 M596.1915,109.4468 C596.2405,109.6598 596.2885,109.8738 596.3375,110.0878 C593.7735,110.9298 591.1845,111.6848 588.7255,112.8108 C587.1375,113.5368 584.7385,113.5128 583.1625,113.0158 C580.5665,112.1968 578.1215,112.3998 575.6555,112.7148 C574.1135,112.9118 572.0125,112.4588 571.3465,114.6868 C571.4195,115.5888 572.4945,114.0238 572.5475,115.1618 C572.5915,116.1058 571.8815,115.8648 571.3445,115.9588 C570.7655,116.0598 569.9965,115.5928 569.5425,116.6538 C570.3255,117.0408 571.1555,117.8078 571.8715,117.7128 C572.7375,117.5968 573.5125,117.3888 574.4395,117.9658 C571.8135,117.7028 570.3925,120.1538 568.0355,120.5098 C567.1205,120.6478 566.5295,121.2888 566.4035,122.3418 C566.2615,123.5268 567.2825,122.9128 567.6925,123.2158 C569.8085,124.7818 572.1185,125.4688 574.7925,124.5108 C575.6755,124.1948 576.7675,124.4608 577.7635,124.4608 C577.8115,124.7098 577.8595,124.9588 577.9075,125.2088 C575.6335,125.3178 573.1075,125.7198 571.9815,127.4188 C569.9255,130.5218 566.5675,130.5468 563.7815,131.9078 C563.6425,131.9758 563.5305,132.0998 563.2755,132.3008 C563.9995,132.4098 564.6115,132.5018 565.5245,132.6388 C562.3375,134.0508 560.0625,136.8908 556.2895,136.0178 C555.4625,135.8268 554.4205,136.4378 553.5145,136.7788 C553.1225,136.9258 552.4505,136.9758 552.6115,137.7238 C552.8085,138.6458 553.3775,137.9328 553.7445,137.9468 C555.1405,137.9978 556.5385,137.9678 558.4605,137.9678 C555.7895,139.4978 552.3715,138.5398 550.9415,142.0718 C552.6715,141.6608 553.8425,142.4308 555.1235,142.6208 C554.7445,143.7778 553.1055,142.9948 552.8295,144.2798 C554.7715,144.9148 556.5105,143.9358 558.5135,143.5608 C557.8895,144.6478 556.4525,144.5608 556.3525,146.2638 C559.3955,144.7448 562.5205,145.5958 565.6335,145.1478 C571.8755,144.2478 577.6595,141.9598 583.6805,140.4418 C586.3215,139.7758 588.7395,138.1748 591.3185,137.5838 C595.4625,136.6348 599.7495,135.9788 604.0915,136.4148 C604.8805,136.4938 605.9765,136.9808 606.5645,135.9298 C608.1125,133.1618 610.8085,131.5238 612.9495,129.3418 C614.4695,127.7928 616.4285,126.5058 615.6335,123.7918 C615.5055,123.3528 615.8495,122.6258 616.1975,122.2278 C617.0535,121.2498 617.1265,120.4008 616.7225,119.0958 C615.8535,116.2848 616.2925,115.8418 619.1715,115.4408 C619.7245,115.3638 620.2745,115.1668 620.7945,114.9498 C623.1485,113.9658 625.0675,112.2358 627.9605,112.1368 C629.9775,112.0678 630.7925,109.3268 629.6005,108.2548 C629.1205,107.8238 626.5975,104.5098 626.6065,104.1228 C626.6405,102.5668 625.6705,102.4378 624.4655,102.4358 C621.9895,102.4338 619.3235,103.2438 617.1255,102.7408 C614.0605,102.0388 611.3025,100.4638 608.3035,102.6818 C608.2995,102.6848 608.1005,102.3248 608.0155,102.3338 C604.9065,102.6908 601.6805,102.7788 598.8235,104.0608 C596.3925,105.1528 594.6365,107.5788 591.7615,107.9528 C591.2305,108.0228 591.0925,108.3468 591.1035,108.8018 C591.1175,109.3658 591.5265,109.4408 591.9555,109.4438 C593.3675,109.4518 594.7795,109.4468 596.1915,109.4468 M695.5275,119.3108 C698.2385,119.1178 697.6955,118.3138 696.4605,117.0038 C695.6915,116.1878 693.5835,115.6018 695.3945,113.7588 C695.9495,113.1938 695.1005,113.0158 694.7205,112.8058 C693.9255,112.3648 693.1165,111.9608 692.6215,111.1318 C691.6165,109.4468 689.7835,108.5288 688.1605,108.5658 C684.1185,108.6558 682.4595,106.4708 681.5485,103.0418 C681.0895,101.3158 678.1025,96.6928 676.5515,95.7348 C674.0395,94.1818 671.0925,93.2868 668.2435,93.7658 C666.5125,94.0558 664.8725,94.5348 663.0285,94.3348 C665.1985,93.1468 667.3005,92.1448 669.7795,92.4268 C670.4365,92.5008 671.2295,92.1298 671.4335,91.5968 C671.8185,90.5888 669.9475,91.3638 670.1675,90.2978 C674.2455,88.7288 677.8575,86.4738 680.9425,83.3698 C681.7475,82.5608 682.6915,81.8808 683.6165,81.2028 C684.1855,80.7858 685.2865,80.6558 684.9485,79.7288 C684.6475,78.9008 683.8535,78.3638 682.7635,78.4288 C681.0435,78.5308 679.2375,78.9308 677.6355,78.7858 C673.3265,78.3978 669.0785,78.4618 664.7985,78.9218 C663.6755,79.0428 662.5785,79.9438 661.3615,79.2208 C661.5585,78.3568 662.2825,78.5838 662.7665,78.3588 C663.0535,78.2258 663.7185,77.8618 663.1805,77.5668 C661.7325,76.7738 662.4535,76.7288 663.4095,76.4358 C666.0485,75.6278 668.6975,74.8278 671.2665,73.8288 C672.7095,73.2678 674.4575,72.7578 674.4545,70.4998 C673.2475,70.4998 672.0705,70.3508 670.9435,70.5258 C666.3635,71.2348 661.6725,72.0718 657.1625,71.2928 C652.7125,70.5238 650.6995,73.7338 648.0095,75.6978 C647.2425,76.2578 646.7365,77.0828 645.6945,76.9298 C642.4625,76.4558 641.5715,79.4768 639.6155,80.9028 C639.0805,81.2928 640.7345,82.4098 639.1075,82.4408 C637.6185,82.4688 638.0725,81.5838 638.3315,80.7918 C636.8175,81.2228 636.9845,78.2238 635.7925,79.1868 C633.9185,80.7018 631.2555,79.6128 629.4965,81.5498 C632.2005,83.1608 634.9335,84.3788 637.9645,84.8598 C636.8485,87.0578 634.7655,87.2828 632.6245,87.7778 C630.4915,88.2708 630.3865,91.0538 628.7015,92.3498 C631.2615,92.0778 633.8215,91.8068 636.6905,91.5018 C632.7735,95.0898 627.6395,95.0418 623.3805,97.1318 C628.2555,100.7258 630.6485,95.2648 634.2385,94.5608 C634.4535,97.8708 631.1295,98.7268 630.0335,101.1348 C633.2715,102.5368 633.9045,99.0448 635.9045,98.1688 C636.2645,98.8508 635.6735,100.0518 637.0765,99.9718 C637.8485,99.9278 638.6905,99.9948 638.9845,99.1558 C639.1865,98.5788 639.3415,97.4488 638.6475,97.3908 C636.6145,97.2228 637.7375,96.1878 637.7055,94.9118 C638.5035,96.6178 639.9845,97.0438 640.7825,96.8068 C641.9495,96.4618 641.9065,97.0248 642.6175,97.4988 C645.6815,99.5438 643.3755,100.0798 641.9035,100.7748 C641.0355,101.1848 640.5705,102.1398 639.7365,102.3688 C638.1705,102.7978 637.7175,104.9518 635.6755,104.7218 C635.0455,104.6518 634.8515,105.8158 635.6265,106.2058 C636.4645,106.6268 636.8565,108.9868 637.7855,107.6308 C639.3675,105.3258 640.6425,106.7618 642.1105,107.2328 C642.9805,107.5118 644.0425,108.6958 644.6985,107.4538 C645.5465,105.8518 646.4505,106.2998 647.6365,106.7358 C648.7475,107.1428 649.8235,106.9468 650.9865,106.5298 C653.2405,105.7218 655.5975,105.1978 657.9115,104.5558 C657.0715,105.7438 655.9765,106.4178 654.9715,107.1718 C653.9105,107.9658 652.6275,108.8118 653.0365,110.0368 C653.9295,112.7078 656.3665,114.0058 658.3575,113.4928 C659.0215,113.3218 660.0095,112.2088 660.4455,113.4368 C660.8325,114.5318 659.8635,115.2838 658.7715,115.4118 C657.8405,115.5218 657.0135,115.7178 657.1035,116.7918 C657.3215,119.3948 654.8015,120.4638 654.0375,122.5018 C653.8345,123.0438 653.4815,122.8848 653.0505,122.6838 C650.3245,121.4158 647.6335,122.9458 644.9105,122.9598 C643.2485,122.9698 641.5305,123.1278 640.2855,122.2648 C637.9465,120.6458 636.3555,121.5308 634.6225,123.1438 C634.9955,123.3688 635.4085,123.4718 635.5255,123.7148 C635.9105,124.5208 637.5165,124.2248 637.2435,125.4158 C637.0115,126.4268 635.8305,126.4228 635.0125,126.7218 C633.7635,127.1788 632.4355,127.4598 631.3785,128.8338 C633.7285,128.9178 635.6015,127.9548 637.6365,127.8308 C639.2175,127.7338 639.4165,128.6428 639.2335,129.4308 C638.6365,132.0018 637.6305,134.4838 634.7875,135.3218 C631.4435,136.3068 628.0685,137.2558 624.6445,137.8938 C621.0815,138.5578 621.1725,138.4368 620.1275,141.0328 C619.7765,141.9028 619.8885,142.0468 620.5415,142.4698 C622.7085,143.8708 624.7205,143.3098 626.6845,142.0888 C627.5405,141.5568 632.0875,141.7058 632.1375,142.4048 C632.3345,145.1468 633.7975,143.7068 635.0515,143.5348 C636.4045,143.3488 637.7635,143.2028 638.9435,144.4878 C639.9965,145.6338 641.5345,145.8548 643.1615,146.0568 C645.6275,146.3638 647.2795,144.5788 649.4415,144.2628 C649.8275,144.2058 650.1845,143.8508 650.4845,144.3058 C650.6005,144.4828 650.5965,144.9768 650.5115,145.0128 C648.4825,145.8908 647.5725,148.7428 644.9295,148.4178 C641.4665,147.9928 638.0035,147.9178 634.5265,147.9428 C632.8225,147.9538 631.2715,148.2888 630.1005,149.6578 C629.5635,150.2868 628.8925,150.8448 628.0445,150.6138 C626.5715,150.2108 625.5055,150.9818 624.8835,151.9778 C623.8135,153.6888 621.9645,154.2638 620.5905,155.4788 C619.1095,156.7878 616.9965,156.3818 615.5175,157.6948 C614.0565,158.9908 612.2625,159.7678 610.4675,160.5968 C608.7615,161.3828 606.9505,161.2478 605.2845,161.9228 C604.5235,162.2318 604.2195,162.7618 604.3795,163.3478 C604.5695,164.0388 605.1495,164.0248 605.7645,163.6018 C607.1815,162.6258 608.5645,162.8188 609.8055,163.9468 C610.7325,164.7888 611.9805,164.7218 612.4455,163.9178 C613.6145,161.9008 615.7605,161.7888 617.4835,161.0768 C621.4375,159.4448 625.6035,158.4378 629.7675,160.4708 C631.8435,161.4858 633.6675,161.5098 635.6345,160.1968 C637.0475,159.2528 637.7345,157.4988 638.9045,156.7418 C641.7125,154.9238 645.2295,154.0958 648.4735,154.8018 C651.6995,155.5038 654.8635,155.9788 658.1345,155.9598 C659.5295,155.9518 660.8375,155.9988 662.1075,155.0188 C663.3235,154.0798 664.8505,154.2158 666.3265,154.8768 C667.6595,155.4738 669.0165,156.0648 670.5705,155.9828 C671.5055,155.9328 672.5695,155.8688 672.9135,155.0468 C673.2665,154.2038 671.5865,154.4748 671.5415,153.4798 C675.1875,153.7908 678.8185,154.4098 682.3615,153.3928 C684.0165,152.9168 685.8135,152.5318 687.2335,153.0698 C690.7035,154.3818 694.0335,153.9208 697.3125,152.8878 C699.6645,152.1468 702.3645,152.5978 704.3845,151.2008 C705.6605,150.3188 706.9505,149.6888 708.3455,149.5248 C710.4975,149.2718 711.2345,148.0528 711.4965,145.9958 C708.1155,145.7798 704.6045,146.5378 701.4115,144.2668 C703.1135,143.7298 705.0505,143.8608 705.2655,141.6128 C705.2875,141.3808 705.7325,141.0038 705.9755,141.0088 C708.2375,141.0548 709.6975,139.4838 711.5045,138.5318 C714.0055,137.2138 715.9015,135.4938 717.2255,133.0748 C718.6605,130.4548 718.1805,128.9818 715.3945,127.9768 C710.1885,126.0988 704.9735,124.8198 699.6525,127.8208 C698.8735,128.2608 697.2135,128.4608 696.7855,127.2328 C696.4285,126.2108 697.5385,125.7328 698.5825,125.3828 C700.1595,124.8548 700.4805,123.6448 699.5005,122.2638 C698.5915,120.9818 697.4985,119.8858 695.5275,119.3108 M0.0755,350.4528 C2.2965,349.3548 3.8795,347.2428 5.2465,345.5378 C7.6285,342.5668 10.4025,339.9858 12.8425,337.0958 C16.4585,332.8148 20.4175,328.8108 24.3795,324.8368 C28.0905,321.1148 32.0095,317.5298 35.5555,313.7188 C38.9635,310.0578 42.6435,306.6468 45.9925,302.9188 C49.6155,298.8868 53.5625,295.1158 57.6225,291.5168 C60.6635,288.8218 63.4475,285.8698 66.4905,283.1868 C72.2035,278.1478 77.4035,272.5618 83.3415,267.7408 C85.9965,265.5848 88.3905,263.0388 91.0025,260.7748 C100.2545,252.7518 109.3725,244.5698 118.7595,236.7098 C127.9845,228.9868 137.4125,221.5028 146.8695,214.0638 C153.5755,208.7878 160.4635,203.7428 167.2985,198.6328 C172.1685,194.9928 177.0435,191.3578 181.9935,187.8288 C188.6025,183.1168 195.1525,178.2988 201.9785,173.9168 C208.6525,169.6328 215.0635,164.9668 221.8105,160.7848 C229.9725,155.7258 237.9905,150.4328 246.1735,145.3958 C253.5925,140.8278 261.1985,136.5888 268.6655,132.1208 C274.7475,128.4828 280.9065,124.9738 287.0135,121.3838 C291.6045,118.6848 296.5055,116.5198 301.1775,113.9518 C310.3305,108.9218 319.6875,104.2998 329.0655,99.7158 C334.5925,97.0138 340.2015,94.4528 345.7055,91.7358 C354.5885,87.3498 363.7695,83.6418 372.6345,79.2348 C376.6915,77.2178 380.9685,75.6348 385.1825,73.9458 C398.1025,68.7678 410.9215,63.3078 424.0905,58.7928 C429.0355,57.0968 433.9045,55.1638 438.8635,53.4958 C444.2695,51.6778 449.7265,49.9218 455.1085,47.9868 C460.6135,46.0078 466.1755,44.1668 471.7685,42.4468 C478.5815,40.3498 485.4525,38.4388 492.3005,36.4528 C496.9415,35.1068 501.5755,33.7348 506.2305,32.4348 C512.7205,30.6248 519.2395,28.9288 525.8315,27.5138 C529.4525,26.7368 533.0235,25.7308 536.6405,24.9318 C543.1985,23.4838 549.6585,21.6268 556.3485,20.6888 C558.5395,20.3808 560.5375,19.4698 562.9885,20.7578 C559.6035,22.5658 556.2875,23.8158 552.6705,23.1648 C551.5255,22.9578 550.8285,23.6188 549.8915,23.5828 C549.9735,23.9428 549.9895,24.3338 550.1485,24.6558 C550.6685,25.7178 551.7295,25.6268 552.5495,25.4168 C555.6255,24.6318 558.6585,23.7658 561.8265,23.2798 C569.0795,22.1668 576.2975,20.8038 583.5085,19.4358 C588.7105,18.4498 593.8865,17.3248 599.0605,16.1938 C600.5565,15.8668 602.1805,16.1148 604.0035,14.8958 C600.7485,15.1978 597.9525,15.7578 594.9705,15.3248 C597.0495,14.3178 599.6405,13.2048 601.1555,13.8238 C603.7815,14.8958 606.0095,13.9108 608.3975,13.9698 C612.7265,14.0748 616.4965,12.3438 620.2695,10.5358 C622.5755,9.4308 625.1855,9.6258 627.6235,8.9968 C636.3005,6.7578 645.2405,6.3888 654.0995,5.4338 C659.2565,4.8788 664.3775,3.8118 669.5415,3.5818 C672.6885,3.4408 675.8465,3.1898 679.0065,3.1078 C682.8925,3.0078 686.7655,2.4668 690.6705,2.3458 C695.9865,2.1808 701.2925,1.7218 706.6065,1.4768 C711.6855,1.2428 716.7725,1.1728 721.8525,0.9388 C732.5845,0.4448 743.3195,0.5708 754.0585,0.5978 C762.1185,0.6178 770.1785,0.8318 778.2075,1.2438 C782.8405,1.4798 787.5045,1.2718 792.1885,1.9998 C795.5695,2.5258 799.2485,2.2638 802.7875,2.4748 C810.2795,2.9238 817.8015,3.1618 825.2445,4.0458 C834.7265,5.1728 844.2635,5.7728 853.7155,7.0408 C861.2855,8.0568 868.8935,8.8678 876.4105,10.3298 C882.0105,11.4188 887.6975,12.0488 893.3325,12.9718 C898.0105,13.7388 902.6535,14.9368 907.2995,15.5808 C913.0305,16.3758 918.6115,17.7138 924.2635,18.7828 C933.4885,20.5268 942.6545,22.5438 951.7645,24.8138 C959.5555,26.7548 967.3485,28.6918 975.1465,30.6328 C975.0145,31.2788 974.1835,30.6508 973.8665,31.4948 C983.4155,33.2988 991.8625,38.2218 1001.3105,40.2878 C1001.2405,40.5268 1001.1725,40.7648 1001.1035,41.0028 C998.8665,40.5328 996.6305,40.0628 994.3215,39.5778 C994.4805,40.0048 994.8915,40.5748 994.7475,40.8128 C993.5375,42.8328 993.5085,42.9228 995.6385,43.7398 C998.4155,44.8058 1001.3775,45.3848 1003.9675,47.0598 C997.1135,46.0668 990.4125,44.3968 983.6345,42.9168 C989.1145,46.9358 996.2545,46.6228 1002.1265,49.7828 C1001.6745,50.6868 1001.0075,50.5168 1000.5305,50.3868 C996.0725,49.1678 991.6155,47.5798 987.1745,46.7478 C980.7035,45.5348 975.1485,42.2568 968.9945,40.5018 C966.9025,39.9048 965.7645,37.9958 963.6385,37.3498 C958.1375,35.6798 952.4325,34.7388 947.0985,32.4068 C950.8805,33.1408 954.6605,33.8918 958.4465,34.6078 C967.1735,36.2568 975.7535,38.6938 984.6435,39.4518 C985.1395,39.4948 985.6435,39.4608 986.1435,39.4468 C986.5595,39.4358 986.9975,39.4208 987.0425,38.8538 C987.0785,38.4148 986.9245,38.1498 986.4875,37.8958 C985.6425,37.4038 984.9025,36.7548 983.9345,36.4528 C978.2715,34.6888 972.6915,32.5938 966.9425,31.1848 C955.6365,28.4138 944.2815,25.7878 932.8555,23.5818 C928.2285,22.6878 923.4245,22.3648 918.8355,21.2928 C916.0045,20.6328 913.2565,19.4198 910.3085,19.3878 C907.7135,19.3588 905.1665,18.4798 902.6975,18.6288 C900.8775,18.7378 900.9775,16.9788 899.5525,16.8718 C894.9375,16.5278 890.5435,14.6758 885.7325,15.0968 C884.5215,15.2028 882.8255,13.9848 881.1605,13.8938 C880.0195,13.8328 880.0295,13.7188 878.0705,14.3858 C877.6505,14.5288 877.3075,14.2968 876.9225,14.1098 C875.7705,13.5488 874.5905,12.7378 873.6385,14.5398 C873.3535,15.0808 872.3055,15.3728 872.1605,14.3678 C871.8415,12.1618 870.1695,12.4478 868.8325,12.5348 C867.9625,12.5918 866.9975,12.3618 866.3185,12.5478 C863.0005,13.4578 859.7655,12.3488 856.5065,12.4828 C855.4755,12.5258 854.6205,13.1958 853.3825,13.0838 C851.9095,12.9518 853.6805,13.8488 853.2855,14.3848 C852.2785,14.0228 851.2325,13.6458 850.1845,13.2718 C849.8785,13.1618 849.4345,12.8738 849.2825,12.9838 C846.4275,15.0628 843.8775,12.4818 841.1645,12.4478 C840.1605,12.4348 839.7175,13.1548 838.9855,13.4638 C837.0035,14.3008 834.7275,13.4818 832.7725,14.7178 C833.4685,16.0768 834.9195,15.2498 835.8925,15.7348 C835.6265,16.2558 835.1485,16.6578 834.6905,16.4318 C832.5135,15.3628 829.5395,17.3218 827.7955,14.6058 C827.6825,14.4298 827.0555,14.3418 826.8845,14.4798 C824.7465,16.2148 822.0785,14.6418 819.8555,15.6408 C819.6975,16.5448 820.9195,16.1748 821.0355,16.9128 C818.1065,17.0478 815.1245,16.5978 811.8645,18.5058 C819.4895,17.4658 826.4805,17.1068 833.4645,18.2038 C831.3815,17.8208 829.3205,17.6558 827.2255,18.4218 C826.3685,18.7358 824.9775,18.4328 826.1025,20.1038 C826.3525,20.4748 825.5515,20.7758 825.1875,20.8838 C823.5715,21.3638 822.2175,22.4308 820.4255,22.6258 C819.4435,22.7328 817.5485,22.7218 817.8235,24.8438 C817.8495,25.0348 817.2875,26.2048 816.3855,25.5518 C815.1755,24.6758 814.5425,25.7388 813.7865,26.2488 C813.8915,27.3248 815.8115,26.5648 815.4195,27.6218 C815.0365,28.6598 814.2695,29.8288 812.8255,29.9328 C810.7245,30.0848 808.6435,31.0178 806.5165,30.1428 C805.7675,29.8348 805.2655,30.2478 805.2015,30.8088 C805.0915,31.7938 805.9855,31.3838 806.4645,31.4388 C807.1185,31.5138 807.7895,31.4568 809.1965,31.4568 C806.8245,32.5408 804.9425,32.9618 803.2225,33.7828 C801.7495,34.4848 800.3235,35.4388 799.1905,36.3308 C796.5245,38.4288 794.4215,37.2498 792.0665,36.2198 C790.7565,35.6468 789.5715,36.6628 788.2905,36.6878 C788.2165,36.6898 788.1895,37.4308 788.0835,37.8108 C787.8715,38.5738 789.2505,38.4528 788.8675,38.7968 C788.3335,39.2768 787.7815,38.8098 787.3395,38.1518 C787.1355,37.8478 786.2485,37.9358 785.6785,37.9688 C785.1625,37.9978 784.3425,37.6168 784.2065,38.3998 C784.0335,39.3978 785.3755,38.5528 785.5135,39.1498 C782.0195,40.4798 778.0535,39.8268 774.7315,41.9268 C774.0755,42.3408 773.2435,42.7148 772.3815,42.3568 C771.8065,42.1178 771.0875,41.4738 770.7235,42.3428 C770.3905,43.1368 771.8365,42.9078 771.8595,43.7248 C771.3345,43.9458 770.9355,44.5448 770.1715,44.2928 C768.1315,43.6178 766.1595,43.6518 764.3715,45.0188 C763.3965,45.7638 762.2605,44.7868 760.9805,45.7958 C758.9135,47.4238 758.7805,48.2168 761.1095,49.3308 C759.8625,50.6308 758.7205,51.7978 756.9085,52.4528 C759.5245,52.2348 758.2535,55.1758 759.9495,55.5088 C759.5715,56.3568 758.8805,55.3268 758.7205,55.7898 C758.4665,56.5198 760.9675,59.2278 761.5795,58.8748 C763.0765,58.0098 764.1855,59.2018 765.7935,59.1348 C764.8595,60.4598 763.1595,59.4518 762.5275,60.8618 C762.3665,61.2168 761.1045,61.8138 761.9465,61.9708 C764.5755,62.4618 760.6915,67.9828 765.3225,66.2458 C767.1315,65.5688 768.9875,65.6248 770.9875,64.8018 C770.4445,65.9248 770.2725,66.4688 768.9075,66.1568 C768.0325,65.9558 766.7595,66.9548 766.5125,68.5028 C766.2895,69.9018 766.4575,70.7718 767.8205,71.3898 C769.9035,72.3368 771.9495,73.2208 774.2795,73.5498 C775.6915,73.7498 777.1675,74.1588 778.4085,75.2878 C779.9625,76.7018 782.2665,76.2248 784.1055,76.3188 C791.0145,76.6678 797.7995,75.9268 803.8945,72.0518 C805.9415,70.7508 808.1855,69.6608 810.4765,68.8768 C811.9875,68.3598 813.7585,68.6548 815.3875,68.4138 C816.9515,68.1828 818.3785,67.5438 817.2765,65.5918 C816.9675,65.0458 817.0125,65.0778 817.4115,64.8348 C817.7415,64.6338 818.1045,64.5348 818.2185,64.9088 C818.9615,67.3448 821.5755,67.3568 823.2035,68.6338 C824.4195,69.5878 825.8515,70.3978 826.5015,71.7278 C828.3845,75.5788 831.9305,77.9338 835.1715,79.9608 C839.7945,82.8528 843.6785,86.8418 848.7855,89.0158 C850.0305,89.5458 851.7375,89.4328 852.5795,90.8998 C852.0025,91.9248 850.9605,91.0758 850.3375,91.6688 C850.2915,92.6578 851.8465,92.2738 851.8305,93.2758 C850.9395,93.9788 850.2055,92.3918 849.2555,93.1928 C849.6605,93.7498 850.0835,94.3308 850.5105,94.9138 C846.1045,93.6978 843.6065,94.4748 842.5965,97.6008 C841.5715,96.1798 840.0785,95.1048 838.7315,96.2208 C837.1985,97.4898 835.6945,98.1308 833.3425,97.7678 C834.5725,99.4398 836.0465,100.3048 836.4485,102.0018 C836.6335,102.7818 837.7035,103.3468 838.4125,103.3198 C841.4485,103.2058 843.9595,104.6218 846.3685,105.6978 C843.9275,107.0808 841.2885,106.8448 838.6565,105.7528 C838.5075,105.6908 838.3885,105.5378 838.2375,105.5028 C837.2235,105.2668 836.5485,105.9248 836.2675,106.6618 C835.9045,107.6098 836.7315,107.8028 837.5125,107.9998 C838.6895,108.2978 839.8125,109.0228 840.9845,109.0848 C844.2875,109.2618 848.0545,111.1938 850.4965,107.2338 C851.3765,105.8088 853.2465,107.2008 854.1145,105.7288 C852.7625,105.2128 851.5075,105.5678 850.2905,105.4318 C849.6395,105.3588 849.2155,105.0238 849.1195,104.3658 C849.0275,103.7348 849.3495,103.4458 849.9685,103.4648 C850.6865,103.4858 851.4315,103.3058 851.4735,102.5258 C851.5275,101.5298 850.5535,101.6148 849.8945,101.3268 C849.4545,101.1348 848.7075,101.1038 848.6615,100.4788 C849.7995,98.3888 851.7165,100.6588 853.2375,99.5548 C851.8865,98.0998 850.9125,96.5998 850.4255,94.8338 C852.6855,95.4948 854.1175,97.5038 856.2355,98.4108 C856.5745,98.5558 856.9795,98.9578 856.8015,99.4088 C855.8965,101.6948 857.0995,101.7958 858.9875,102.0908 C861.1565,102.4288 863.1635,102.3928 865.3155,102.0608 C867.0545,101.7928 868.9365,101.6068 870.7155,102.3038 C871.6945,102.6868 872.5675,102.2698 872.9985,101.4318 C873.4855,100.4848 872.5395,100.1098 872.0015,99.5128 C871.5905,99.0558 870.0035,99.1958 870.9055,97.8428 C871.5395,96.8928 872.3115,95.9228 873.5095,96.2328 C874.6305,96.5218 875.2175,96.4328 875.9595,95.4538 C876.7565,94.4028 878.2775,94.7328 879.2355,95.0468 C881.6485,95.8358 884.1925,94.9798 886.5615,95.9198 C887.2545,96.1948 887.9815,95.8768 888.5585,95.2378 C889.7715,93.8938 888.5505,91.9458 890.0745,90.4298 C890.9275,89.5818 890.3925,87.3848 889.0545,86.1498 C888.8385,85.9508 888.5955,85.5328 888.6655,85.3098 C890.0495,80.9198 886.6455,77.9058 885.9385,73.9468 C887.2285,73.0738 889.7555,74.1598 891.1805,72.1808 C891.2905,72.0278 891.7925,71.9268 891.8415,71.9938 C893.2045,73.9078 894.8925,71.3938 896.4065,72.3458 C896.9965,72.7168 897.8275,71.7648 897.8545,71.2978 C897.9315,69.8978 898.9515,69.9658 900.2465,69.8208 C897.7955,68.0378 897.9895,66.7798 901.0705,66.0208 C897.0805,64.0018 893.7015,61.3278 889.9995,60.7628 C887.6035,60.3958 885.5335,58.5828 882.7335,59.3148 C880.0015,60.0298 873.8365,55.5858 872.7685,52.8408 C872.5315,52.2328 872.6385,52.1608 875.0195,51.6218 C872.3305,51.2178 872.5035,49.2328 871.8005,47.8048 C871.6135,47.4228 871.6225,47.1808 871.9795,47.0208 C873.7675,46.2208 875.4945,45.3778 875.8965,43.1588 C875.9135,43.0598 876.3025,42.9768 876.5205,42.9738 C879.9155,42.9288 882.8555,40.8078 886.2775,40.8518 C888.6975,40.8828 888.4225,37.7438 890.6065,37.4468 C889.9215,36.3908 889.0835,35.9998 888.2015,35.9798 C886.2405,35.9358 885.4455,34.6398 885.7185,33.1148 C886.0285,31.3918 887.5775,32.2398 888.6365,32.5738 C889.0685,31.6808 888.1135,31.6388 888.0565,30.8648 C896.4125,32.1138 905.2025,30.8508 913.2035,36.4778 C911.9885,36.3778 911.2385,36.5058 910.6985,36.2268 C909.9205,35.8238 909.8185,36.1868 909.4305,36.7258 C908.0105,38.6948 907.0185,41.3658 903.6715,40.5098 C903.0715,40.3558 902.8255,41.0898 902.5035,41.5938 C901.7785,42.7268 900.8965,43.7078 899.2905,43.4628 C897.9525,43.2588 898.3365,45.6928 896.2615,44.8128 C898.2385,46.8268 900.1455,47.9608 901.8025,49.3008 C904.6745,51.6228 908.6285,52.5158 910.6565,55.8438 C911.4955,57.2198 911.7285,58.8168 912.9215,60.1788 C913.9075,61.3048 914.7385,61.8508 916.0765,61.9598 C916.8735,62.0238 917.9945,61.6168 918.3305,62.5608 C919.4425,65.6888 921.7765,64.7108 924.0005,64.5358 C925.2375,64.4388 926.5935,64.4748 927.5305,65.6428 C927.7795,65.9528 928.1975,66.4088 928.4795,66.3688 C933.4515,65.6778 938.3765,69.2548 943.3595,66.5368 C947.6725,67.4288 951.8335,65.3788 956.2995,66.0708 C958.4425,66.4018 961.3475,65.8208 963.7625,65.2418 C965.4725,64.8318 966.7915,65.6138 968.3305,65.5218 C971.3375,65.3418 974.1125,65.2848 977.2115,66.9128 C979.8685,68.3068 983.4315,69.3808 986.8905,68.9628 C988.3615,68.7848 989.6475,69.1988 990.7235,70.2778 C989.5045,70.8578 988.5255,69.7118 987.3405,69.9018 C986.4025,70.0528 984.8735,68.3428 984.7525,70.8378 C984.7495,70.8878 984.0365,71.0578 983.8215,70.9168 C982.0335,69.7478 980.0505,72.3518 978.2625,69.8198 C978.4215,71.9498 980.2555,71.7248 980.5285,73.0308 C974.9285,72.7878 969.5455,71.4958 964.0875,70.7568 C962.1215,70.4908 960.2425,69.6728 957.9985,70.7758 C956.1645,71.6778 953.7695,70.4728 951.5165,70.8478 C949.0485,71.2578 946.6125,71.7598 944.0595,72.0958 C946.9245,77.2198 953.5425,80.6388 959.2055,79.9478 C960.8475,79.7468 961.3165,81.0208 961.6735,81.9108 C962.7235,84.5208 964.9975,85.9608 966.8265,87.8168 C967.2575,88.2548 968.1775,88.3698 967.9735,89.1768 C967.7465,90.0738 967.0115,90.6998 966.1005,90.9048 C963.2815,91.5388 960.5465,91.0258 958.3055,89.3418 C954.9015,86.7838 950.7265,86.0018 947.0125,84.1758 C945.2455,83.3078 942.4435,84.1078 940.2565,84.6958 C938.8575,85.0718 938.6165,86.7008 939.4495,88.0368 C940.0635,89.0198 940.7615,89.8578 939.2095,90.6018 C938.4055,90.9878 938.8915,91.5928 939.1045,92.0528 C941.2675,96.7078 945.1105,100.0118 948.8545,103.2118 C950.8075,104.8808 951.9455,106.9918 953.6085,108.7638 C953.8595,109.0318 953.9455,109.2958 953.6355,109.6008 C953.0685,110.1598 952.3815,110.0158 951.7685,109.8338 C948.1535,108.7648 944.4705,108.8528 940.7595,109.0348 C940.7055,112.3498 943.2855,111.7738 945.6195,112.1378 C943.6075,113.0118 942.0855,113.9178 940.6055,114.9108 C939.4515,115.6858 938.1435,115.7098 936.8395,115.0698 C936.1905,114.7508 935.5585,114.3468 934.7475,114.4408 C931.4525,114.8228 928.6235,114.0808 926.2295,111.5258 C923.2825,108.3828 919.5845,108.7898 915.7055,109.5398 C912.1145,110.2348 908.5775,111.3308 904.8815,111.4568 C904.4785,111.4708 903.8835,111.4258 903.7035,111.6598 C900.2955,116.0918 895.1075,114.3718 890.7385,115.4308 C887.8925,116.1198 884.9815,116.5428 882.1275,117.2028 C880.6175,117.5528 879.2765,117.4118 877.8105,116.8958 C875.3845,116.0428 873.0965,114.5818 870.3325,114.9298 C869.6225,115.0188 868.8145,115.1298 868.2885,114.3678 C868.0655,114.0438 868.1405,113.7508 868.3505,113.4718 C869.0495,112.5378 869.8115,113.1458 870.5685,113.3688 C870.6765,113.4008 870.8415,113.2368 871.1885,113.0528 C869.7785,112.1238 869.6485,109.3488 866.9595,110.6998 C866.8195,110.7698 866.3345,110.4598 866.2185,110.2238 C865.5355,108.8328 864.6935,109.5388 863.7535,109.8908 C862.2585,110.4508 863.5675,111.3828 863.4635,112.2978 C861.3215,111.3088 859.1945,111.4648 857.0755,111.4268 C856.1005,111.4098 855.2095,111.6728 854.5705,112.2748 C853.4325,113.3458 852.1875,113.7788 850.6395,114.0528 C848.0555,114.5098 845.4535,114.7028 842.9405,116.0498 C841.3705,116.8888 838.8535,115.9588 836.5495,115.6108 C838.6375,114.7088 838.3745,112.0318 840.3745,111.0018 C839.5225,111.1358 838.1315,108.3658 837.7915,111.6348 C837.7545,111.9968 835.5195,112.5408 834.4555,112.3058 C831.9715,111.7578 829.5375,111.0258 826.9695,110.8758 C826.4545,110.8458 825.6135,110.4308 825.5285,110.0558 C825.0035,107.7618 823.2885,107.1888 821.2975,106.6208 C822.3085,106.5298 823.3195,106.4388 824.4565,106.3358 C822.7335,103.6818 820.0905,104.3508 817.2665,104.3448 C818.5325,103.1438 820.1915,102.1818 817.8655,100.9348 C819.0035,100.1238 819.6125,100.6088 820.0725,101.2208 C822.7245,104.7398 827.1115,104.1248 830.6055,105.6318 C831.4515,105.9968 832.0955,104.8908 832.3855,104.2738 C832.8455,103.2928 832.6645,102.2848 831.7715,101.3458 C829.2045,98.6458 825.9985,98.7688 822.7555,99.1558 C822.1305,99.2298 821.4925,99.4568 820.8335,99.4218 C820.5035,99.4048 820.1165,99.3428 820.1475,98.9018 C820.1675,98.6048 820.4145,98.0598 820.4365,98.0658 C821.8705,98.4698 821.8535,96.7438 822.7655,96.4858 C824.0145,96.1328 824.4025,95.5198 823.7435,94.3268 C823.3485,93.6098 824.0185,93.2808 824.4105,92.9108 C825.1915,92.1778 825.0335,93.2468 825.3075,93.4448 C826.6435,94.4088 829.6745,93.5008 830.3315,91.9918 C830.8045,90.9068 830.0345,90.7758 829.4115,90.3768 C828.2485,89.6308 826.9685,89.8938 825.7775,89.9928 C823.9055,90.1478 823.0925,88.8218 822.2245,87.6898 C821.4425,86.6708 821.9085,85.4248 822.7335,84.6768 C824.0445,83.4858 823.2795,82.3558 822.7015,81.4398 C822.2135,80.6638 821.9685,80.0978 823.0155,79.0118 C820.8245,79.6338 819.2745,80.0088 817.6195,80.0058 C816.3365,80.0038 815.0315,80.4558 814.1755,81.5998 C812.6875,83.5878 810.6815,83.9588 808.2865,84.0318 C805.4985,84.1168 802.5005,83.4058 799.9725,85.4488 C798.4565,86.6728 797.7155,88.1808 797.5645,90.0768 C797.3235,93.0978 799.1515,95.6838 799.3525,98.6838 C799.4255,99.7788 802.4495,100.8488 803.4665,100.7128 C806.3265,100.3308 806.4715,102.2668 806.4655,103.7138 C806.4555,106.0208 807.2725,107.5058 809.2285,108.4828 C810.2325,108.9848 809.9975,110.0078 810.3375,110.7928 C809.4385,111.2228 808.0165,110.4248 807.5715,112.2318 C810.9375,111.8788 811.1705,114.7528 812.3245,116.7878 C811.5175,117.0088 810.7575,117.0788 809.9815,116.6528 C808.9735,116.0998 808.1725,116.7408 807.6385,117.4028 C806.9135,118.2998 807.3715,120.4078 805.1365,119.6808 C805.1155,119.6738 804.5415,119.9958 804.8305,120.4438 C805.0695,120.8138 805.1945,121.2428 804.5995,121.4008 C804.0705,121.5418 803.5675,121.3688 803.3095,120.8808 C801.5635,117.5758 798.6285,117.9888 795.6765,118.3838 C795.0215,118.4718 794.2865,118.6138 793.6935,118.4168 C790.9995,117.5208 789.5015,118.7208 788.5175,121.0908 C788.3095,121.5938 787.8455,122.2528 787.1855,121.7458 C784.8235,119.9308 782.3635,121.5308 779.9995,121.6228 C778.7445,121.6718 777.2525,122.2518 776.1255,121.8598 C773.8625,121.0708 771.9595,122.2088 769.9855,122.6118 C768.4595,122.9228 766.8265,123.7768 766.9955,126.1228 C767.0925,127.4578 767.5455,127.9788 768.6875,128.2908 C769.3335,128.4668 770.1735,128.4208 770.1055,129.5848 C770.0555,130.4468 769.8175,130.9528 769.0095,131.2508 C767.9425,131.6458 766.9735,132.2448 765.8615,132.5938 C764.9695,132.8728 764.2465,133.1868 763.7335,132.2378 C763.0975,131.0628 764.3055,130.9508 764.8835,130.5108 C765.1975,130.2698 765.5725,130.1088 766.1245,129.7958 C764.0765,128.3058 762.6615,126.0238 759.8235,127.0288 C759.3745,125.7468 761.0875,125.3958 760.4105,124.2408 C757.3165,124.6108 757.7665,127.6158 757.2235,129.3768 C756.2415,132.5658 754.5405,134.8288 751.8175,136.5458 C749.5715,137.9598 747.2655,139.3178 745.2145,140.9818 C743.9705,141.9908 742.9745,143.2378 741.2495,143.4078 C741.0915,143.4228 740.8085,143.5328 740.8095,143.5948 C740.8595,147.2538 737.7225,145.6788 736.0575,146.4018 C733.6835,147.4318 731.1485,148.0888 728.6975,148.9508 C724.9535,150.2678 720.9695,150.1338 717.1315,150.9088 C713.1145,151.7178 712.9855,151.7118 712.5125,156.0358 C712.0125,160.6088 707.8855,164.5688 702.9645,164.9128 C698.9285,165.1968 695.1295,166.3918 691.2835,167.4558 C690.4865,167.6768 689.7895,168.0678 689.1405,168.6018 C687.8165,169.6938 687.0735,170.7518 689.4395,172.0448 C685.9525,173.1568 683.2115,174.3278 679.5375,173.2208 C676.6185,172.3418 673.1035,172.4788 669.8355,172.8678 C668.1465,173.0698 667.7795,171.7028 667.8135,170.5548 C667.8825,168.1788 667.3375,167.6288 664.9445,168.2858 C663.6845,168.6318 662.4195,168.7088 661.1665,168.4088 C660.2365,168.1838 658.8945,167.3358 658.5725,168.4358 C658.3095,169.3338 657.5525,170.7448 658.5465,171.7238 C661.2485,174.3818 660.5525,177.7298 660.5635,180.9398 C660.5665,181.8238 660.8705,183.1048 659.7605,183.2978 C658.5715,183.5058 657.2055,184.6338 656.0645,183.3928 C655.3415,182.6058 654.7635,182.7448 653.8455,182.8718 C652.1135,183.1128 650.3505,183.9788 648.5565,182.9788 C648.2395,182.8028 647.7305,182.9108 647.3215,182.9708 C644.2855,183.4188 640.4515,182.6918 637.9775,181.0318 C637.3815,180.6318 636.8415,180.3568 636.1635,180.4568 C633.5595,180.8438 630.8235,180.2738 628.4355,182.1738 C627.3755,183.0178 625.5125,182.8428 624.1495,182.8058 C619.8005,182.6888 615.6075,183.2678 611.4805,184.5058 C610.4505,184.8158 609.5725,185.4458 609.2255,186.5878 C609.1035,186.9928 609.0935,187.7388 609.2395,187.7038 C611.6895,187.1328 611.7835,191.3768 614.6395,189.9758 C613.2665,191.8508 611.3685,191.8518 609.5155,192.3218 C611.4855,192.8288 612.4965,194.0308 613.2775,195.7478 C613.8195,196.9398 615.0335,196.6968 615.9875,195.7998 C617.3555,194.5138 618.7815,194.4898 620.1355,195.7978 C620.6635,196.3078 621.2315,196.5858 621.9185,196.4458 C624.1515,195.9908 626.3435,196.7038 627.9875,197.8008 C630.4695,199.4568 633.4785,199.3148 635.9315,200.8358 C636.8005,201.3748 637.8305,200.6518 638.7895,200.5108 C640.0775,200.3208 641.4955,200.3018 640.4015,202.3698 C639.4285,204.2078 641.1475,204.5858 642.0135,204.3678 C644.7805,203.6688 644.8795,206.5848 646.4875,207.3858 C646.6515,207.4678 646.6005,208.4398 646.3485,208.7588 C646.1405,209.0218 645.6095,209.3818 645.0685,209.1548 C644.4945,208.9138 643.9155,208.6908 642.7445,208.2228 C646.1175,212.9658 648.8515,217.3848 654.1155,219.2718 C655.0335,219.6008 656.1115,219.0878 656.9075,220.0148 C658.3095,221.6468 658.2385,223.8028 659.0375,225.6458 C659.2025,226.0268 658.9265,226.4868 658.3745,226.4328 C657.8525,226.3828 657.3135,227.1218 656.8195,226.4118 C656.5405,226.0118 656.3885,225.3998 656.0155,225.2188 C655.4835,224.9598 654.8945,224.1408 654.3085,224.6718 C653.6835,225.2388 654.3935,225.7858 654.6965,226.3728 C655.8765,228.6568 656.8785,231.0218 659.5875,231.9958 C660.4435,232.3048 660.0285,233.0848 659.9105,233.7178 C657.3745,232.3088 656.7845,232.5018 655.9845,235.2258 C654.9185,238.8528 652.7555,242.3338 652.3595,245.8848 C651.6445,252.2958 648.4435,257.5958 646.3345,263.3678 C644.2435,269.0898 639.6695,271.4248 633.8905,272.5528 C630.0875,273.2948 626.6595,272.6938 623.4045,271.2628 C620.7995,270.1178 618.3845,270.3318 615.9815,271.0628 C613.5515,271.8018 611.2925,271.7618 609.2425,270.4418 C605.9035,268.2898 602.1865,268.7358 598.9425,269.6498 C593.2795,271.2448 587.8615,270.7668 582.1715,270.1808 C577.6695,269.7168 573.6055,267.6038 568.9255,267.6518 C567.0465,267.6708 564.2115,267.7538 562.2965,266.0688 C562.2125,265.9938 561.9205,266.0108 561.8415,266.0948 C559.4685,268.5848 556.5015,267.3868 553.7195,267.4758 C550.5865,267.5758 547.4375,267.0518 544.3105,267.8888 C543.0595,268.2238 541.6535,268.0728 540.5445,267.1438 C538.1175,265.1138 535.2675,265.0658 532.2735,264.6118 C529.4245,264.1798 527.8035,265.4508 525.7605,266.4158 C523.5535,267.4598 521.7255,268.9558 519.8295,270.5268 C517.8215,272.1888 514.7635,273.4778 511.6725,272.7218 C511.1925,272.6048 510.6335,272.2808 510.2605,272.4968 C507.8215,273.9128 504.8415,274.2278 502.6725,276.1348 C501.2255,277.4078 499.7845,278.6138 501.6345,280.9168 C502.4775,281.9658 503.2665,283.8168 501.6415,285.3458 C501.3365,285.6338 500.6315,286.3758 501.4505,287.0588 C502.0945,287.5958 502.4805,286.9038 502.9665,286.7718 C503.7865,286.5498 504.4315,285.6358 505.4545,286.1418 C505.6265,287.1168 504.5305,287.3248 504.3825,287.9618 C504.2295,288.6198 502.7045,289.3598 504.3285,290.1148 C504.4985,290.1938 504.5375,290.9798 504.5155,290.9858 C502.6435,291.4868 503.2215,293.6148 502.1645,294.5598 C498.8005,297.5648 498.7885,301.8098 498.1615,305.7038 C497.5845,309.2918 496.8525,312.8778 497.0155,316.6328 C497.0965,318.4868 495.6085,320.6308 494.3465,322.2728 C491.8005,325.5848 490.1965,329.5348 487.2545,332.5588 C487.1465,332.6678 487.0975,332.8538 487.0615,333.0128 C485.7085,338.9518 480.7855,342.6008 477.7545,347.4638 C477.2385,348.2908 476.4945,349.1568 475.6445,349.5628 C471.9405,351.3348 470.3005,354.8938 468.0755,357.9528 C312.8255,357.9528 157.5755,357.9498 2.3255,357.9998 C0.4515,358.0008 -0.1655,357.5918 0.0365,355.6998 C0.2215,353.9688 0.0755,352.2028 0.0755,350.4528" id="Fill-1" fill="#E9E9E8" mask="url(#mask-2)"></path>
                    </g>
                    <path d="M860.49,283.3726 C861.958,284.9866 863.761,283.8916 865.302,284.2446 C865.862,284.3726 866.136,283.3666 866.073,282.6426 C866.029,282.1406 865.684,281.7336 865.305,281.9356 C863.844,282.7146 861.968,281.8936 860.49,283.3726 Z M745.395,338.8916 C743.894,338.7456 742.685,339.5326 741.363,339.8746 C740.68,340.0506 740.148,340.1326 740.44,341.1196 C740.669,341.8926 740.753,342.5436 741.789,342.3976 C743.401,342.1716 744.85,342.8006 746.239,343.4586 C747.638,344.1206 749.474,345.3316 750.374,343.8786 C751.345,342.3096 749.448,340.9756 748.263,339.8626 C747.463,339.1116 746.47,338.7366 745.395,338.8916 Z M725.977,341.8506 C725.438,341.8996 725.183,341.8906 724.945,341.9506 C719.813,343.2446 715.448,346.0926 711.102,348.9296 C709.905,349.7106 709.531,350.8156 711.419,351.5426 C712.564,351.9826 713.689,352.2276 714.681,351.4806 C716.402,350.1846 717.042,351.3386 717.541,352.6556 C718.104,354.1406 723.352,357.1706 724.859,356.7626 C725.011,356.7206 725.125,356.5456 725.276,356.5006 C729.591,355.2086 730.261,350.6156 733.006,347.8946 C733.349,347.5536 733.235,346.5536 732.531,346.1426 C732.015,345.8416 731.553,345.3896 730.799,345.7826 C728.497,346.9816 727.472,346.2546 727.521,343.6386 C727.539,342.6736 727.07,341.6586 725.977,341.8506 Z M845.558,282.4756 C845.598,283.7266 845.264,284.8476 843.761,284.1706 C842.578,283.6396 841.87,284.2466 841.055,284.6946 C840.273,285.1256 839.646,285.9766 838.833,286.1876 C833.645,287.5436 833.174,288.5076 833.378,293.4036 C833.447,295.0706 833.83,295.8026 834.981,296.5686 C835.699,297.0466 835.485,297.5736 835.13,298.2566 C834.427,299.6066 834.3,300.8076 836.407,300.9276 C837.169,300.9716 837.704,301.3736 837.107,302.2126 C836.142,303.5736 837.103,303.8946 838.091,304.4646 C838.535,304.7216 840.278,304.6666 839.188,305.9426 C837.93,307.4156 839.227,307.8086 840.014,308.3586 C841.783,309.5946 844.303,309.2286 845.812,311.2036 C846.344,311.8986 847.389,311.1896 847.625,310.5276 C848.652,307.6376 851.246,305.1036 849.68,301.5666 C849.386,300.9006 849.361,299.9746 850.004,299.2236 C853.392,295.2646 851.028,291.3086 849.825,287.4326 C849.32,285.8016 848.548,284.2616 848.589,282.5106 C848.629,280.7686 848.285,278.5516 846.531,278.6506 C844.927,278.7416 844.708,280.8446 845.558,282.4756 Z M655.576,358.3896 C652.717,353.7836 654.346,351.1626 657.084,348.0756 C658.712,346.2406 659.931,344.0716 661.794,342.3906 C664.472,339.9706 666.93,337.3026 669.661,334.9466 C670.574,334.1586 671.316,333.2536 671.817,332.3126 C673.449,329.2546 676.748,328.7226 679.274,327.0436 C680.407,326.2906 681.843,325.8626 680.252,324.1886 C679.812,323.7266 680.184,323.1576 680.562,322.6366 C682.224,320.3476 684.051,318.6486 687.171,318.2816 C689.788,317.9746 692.259,316.5856 694.86,315.9406 C698.171,315.1206 701.54,314.5166 704.905,313.9386 C705.671,313.8076 706.505,313.6406 706.945,313.1866 C711.168,308.8316 717.041,307.8366 722.252,305.4936 C724.034,304.6916 725.707,303.6516 727.441,302.7406 C730.265,301.2576 730.949,299.5096 729.456,296.6926 C728.714,295.2936 728.8,294.5216 730.291,293.9856 C730.995,293.7326 731.932,293.4236 731.076,292.5226 C729.793,291.1756 729.566,289.1406 727.988,288.0176 C727.721,287.8276 727.455,287.5826 727.298,287.3026 C724.692,282.6786 728.774,274.9446 734.019,274.3686 C737.354,274.0026 739.825,271.5606 742.819,270.3226 C744.555,269.6046 745.923,268.6926 747.985,269.7416 C749.588,270.5566 751.51,271.0666 753.445,270.8926 C754.32,270.8136 754.959,271.1496 755.683,271.6806 C757.675,273.1366 759.857,273.4766 762.088,272.1096 C762.485,271.8666 762.794,271.1656 763.316,271.5246 C768.243,274.9136 774.843,274.1546 779.537,278.0916 C779.906,278.4006 780.21,278.2696 780.642,278.1216 C782.01,277.6536 783.425,277.3506 784.842,277.9996 C784.992,278.0676 785.228,278.2616 785.26,278.2296 C787.662,275.8266 791.147,277.4396 793.815,275.9386 C794.321,275.6536 795.112,275.4226 795.164,274.9876 C795.572,271.5446 799.07,271.3706 800.976,269.5526 C803.357,267.2806 806.583,266.0586 809.694,264.8096 C811.761,263.9786 813.902,264.6706 815.997,263.9676 C818.965,262.9706 821.358,261.8676 823.27,258.9476 C825.053,256.2256 827.804,253.6536 831.411,253.0446 C832.886,252.7956 834.566,253.0116 836.01,253.4676 C840.314,254.8286 844.739,255.9866 848.64,258.3156 C850.473,259.4086 852.468,259.2296 854.341,259.6606 C857.207,260.3206 859.065,261.9096 859.75,264.4316 C860.622,267.6446 862.492,270.0986 864.495,272.5586 C865.864,274.2396 867.321,275.8516 866.598,278.3396 C866.275,279.4536 866.828,280.0106 868.072,279.9206 C868.774,279.8696 869.695,279.5596 870.172,280.3056 C872.25,283.5466 876.291,284.1086 878.842,286.7356 C879.591,287.5066 880.265,288.2266 880.011,289.1856 C879.601,290.7266 880.614,290.9706 881.513,290.8266 C886.483,290.0356 890.21,291.7726 892.941,295.9576 C893.681,297.0926 895.057,297.5016 896.303,297.8686 C898.878,298.6266 901.034,299.8866 902.614,302.1366 C903.475,303.3626 904.94,303.9196 906.158,304.7446 C909.569,307.0566 912.646,310.0206 917.063,310.3516 C917.816,310.4076 918.209,310.9046 918.743,311.2846 C920.335,312.4176 921.677,313.9026 924.116,312.5356 C925.576,311.7176 927.482,312.6126 929.06,313.3916 C930.132,313.9206 931.218,314.3236 932.279,313.4256 C933.094,312.7346 933.605,313.4756 934.192,313.7786 C937.092,315.2816 938.545,318.2466 940.707,320.4826 C941.707,321.5176 942.482,321.8466 943.761,321.9326 C945.252,322.0316 946.968,321.2066 948.181,322.7746 C948.689,323.4316 949.936,323.7156 948.826,325.0756 C948.29,325.7346 949.257,326.9636 950.18,326.4036 C952.064,325.2616 954.353,326.6716 956.107,325.1876 C956.487,324.8666 956.813,325.4266 957.11,325.6736 C959.158,327.3776 961.792,328.6086 961.21,332.1266 C961.002,333.3796 962.251,334.4456 963.505,334.5306 C965.905,334.6936 967.584,336.0856 969.272,337.4656 C970.678,338.6146 971.968,338.7946 973.507,337.7596 C974.47,337.1116 975.443,337.2706 976.462,337.9826 C978.599,339.4776 980.356,341.1776 981.094,343.7996 C981.327,344.6306 981.894,345.4306 982.485,346.0876 C985.807,349.7816 989.22,353.4046 990.576,358.3896 L860.576,358.3896 C861.165,355.0006 861.722,351.5736 861.376,348.1566 C861.217,346.5876 861.273,345.0576 861.191,343.5136 C861.087,341.5536 861.688,339.3906 860.523,337.6586 C858.542,334.7146 858.473,334.5796 860.825,331.8786 C861.734,330.8336 862.93,329.5206 861.577,328.2376 C859.103,325.8936 859.65,321.6346 856.172,319.9886 C856.018,319.9176 856.121,319.3576 856.058,319.0346 C855.617,316.7506 853.721,314.8996 852.216,314.1576 C850.469,313.2976 848.038,312.5746 845.485,315.2386 C842.957,317.8776 839.793,320.5576 835.97,321.9956 C832.54,323.2866 829.507,321.5976 829.637,317.8066 C828.502,318.5316 827.805,319.5186 828.268,320.6646 C828.589,321.4566 828.247,321.9046 828.08,322.4836 C827.346,325.0226 828.316,327.1436 830.715,328.2786 C831.222,328.5196 831.893,328.7906 832.102,329.2306 C833.687,332.5766 836.934,335.5336 834.648,339.8536 C834.346,340.4256 834.399,341.3236 834.895,342.0006 C836.969,344.8286 836.013,348.0416 835.913,351.0956 C835.832,353.5406 835.416,355.9686 836.076,358.3896 L655.576,358.3896 Z" id="Fill-4" fill="#E9E9E8"></path>
                    <path d="M1011.5759,358.3892 C1010.4499,357.0322 1009.9419,355.3382 1009.6549,353.7142 C1009.1509,350.8612 1007.2099,349.1962 1004.9729,348.1922 C1002.7389,347.1892 1000.6189,345.8252 998.0279,345.5012 C995.1079,345.1362 994.4239,343.2322 994.4869,340.3962 C994.5519,337.5062 995.2379,334.8772 996.0869,332.2132 C996.4599,331.0402 996.9219,329.9112 997.7499,328.9712 C999.0819,327.4602 1000.2749,327.2042 1002.1139,328.5772 C1005.2209,330.8932 1008.7809,331.8232 1012.8149,331.5872 C1015.5359,331.4282 1017.5919,333.3612 1018.8089,335.8812 C1020.5019,339.3822 1023.4119,341.0282 1027.1599,341.3852 C1028.3439,341.4972 1028.8939,341.1542 1028.3189,339.8122 C1028.0409,339.1632 1027.9329,338.2912 1028.1179,337.6222 C1028.9959,334.4332 1026.8909,332.7342 1024.9199,330.9882 C1022.9029,329.2012 1020.3939,328.0682 1018.2739,326.5352 C1015.4039,324.4612 1012.5289,322.7852 1009.1479,321.9002 C1003.4999,320.4192 999.1369,316.0952 993.3839,314.8212 C987.3399,313.4812 981.6539,311.0352 975.8299,309.0172 C975.0239,308.7382 974.3539,308.3712 973.6889,307.9092 C971.7799,306.5772 971.6329,305.1212 973.5469,303.9602 C974.9479,303.1102 975.4129,301.9932 975.0099,300.6622 C974.5929,299.2892 973.3149,298.7822 971.8969,298.8942 C970.3349,299.0172 968.5369,298.3142 967.4249,300.1302 C967.1949,300.5052 966.7749,300.3432 966.5909,300.0992 C965.3589,298.4672 963.9909,298.6882 962.4759,299.6642 C962.1799,299.8562 961.6649,299.8612 961.2999,299.7662 C957.7929,298.8512 954.0499,298.7502 950.7559,297.1822 C948.0449,295.8912 945.5559,294.1292 942.9789,292.5632 C938.6289,289.9182 934.0239,287.5442 930.8809,283.3832 C927.9799,279.5432 925.4609,275.4172 922.5709,271.5702 C920.9299,269.3842 919.6459,266.7672 916.0469,266.7052 C914.2689,266.6752 912.2709,265.4132 910.8049,264.1912 C907.5589,261.4862 903.3639,261.0312 899.8019,259.0592 C895.1259,256.4712 893.1869,252.2462 891.6299,247.6272 C891.3399,246.7702 891.4169,245.7282 892.8909,245.8842 C893.7119,245.9722 894.4199,245.7212 894.5439,244.7822 C894.6819,243.7402 894.3969,242.7202 893.3699,242.3502 C891.1319,241.5412 890.4059,239.1362 888.4979,237.9732 C887.5069,237.3682 888.3059,236.4582 888.6339,235.7752 C889.1239,234.7482 890.6239,233.6672 891.0639,234.0672 C893.5519,236.3232 895.0489,233.4132 896.9609,233.0712 C898.0229,232.8802 898.9889,231.7712 900.3229,231.8762 C900.7739,231.9112 901.2599,231.6922 901.3389,231.2962 C901.8379,228.8232 903.4949,230.0342 904.5119,230.4842 C905.9559,231.1242 907.1419,231.3532 908.5319,230.4292 C909.6599,229.6802 910.5039,230.4902 911.2069,231.3062 C912.0849,232.3262 911.3619,233.1432 910.5809,233.5462 C909.2619,234.2272 909.2759,235.3092 909.7689,236.2292 C911.0989,238.7052 911.9719,241.5682 914.7899,242.9552 C915.9939,243.5492 916.2839,244.9772 917.4979,245.7302 C918.9219,246.6132 919.4099,246.1752 920.2209,245.1052 C921.7299,243.1122 922.5169,240.8372 923.0739,238.4712 C923.4289,236.9642 924.3149,237.1592 925.3659,237.4902 C926.7349,237.9212 926.8109,238.9912 926.4639,240.0582 C926.1339,241.0722 925.5519,240.5932 925.0089,240.1032 C924.6929,239.8172 924.2089,239.7712 923.8489,240.0272 C923.3429,240.3862 923.7529,240.7342 923.9649,241.0672 C925.4019,243.3222 925.5309,246.0802 926.9249,248.4232 C927.6389,249.6242 928.3789,249.5212 929.0279,249.2892 C930.0669,248.9192 929.3979,248.2272 929.0469,247.5532 C928.5249,246.5552 928.2529,245.4302 927.8189,244.3812 C927.5869,243.8172 927.3379,243.3342 928.0369,242.9112 C928.5709,242.5882 929.0579,242.5642 929.5969,242.8902 C929.9429,243.1012 930.3409,243.2242 930.6959,243.4212 C931.2709,243.7402 931.9479,244.2822 932.4489,243.5892 C932.9049,242.9592 932.3429,242.3642 931.8449,241.8862 C931.6169,241.6682 931.4259,241.4112 931.0259,240.9522 C932.9539,241.1272 934.0319,242.1612 934.3839,243.5992 C934.9029,245.7252 936.3869,247.5772 936.1009,249.9412 C935.9749,250.9872 936.8069,251.5192 937.6739,251.9182 C939.2939,252.6652 940.5009,253.8322 941.3879,255.3952 C941.7149,255.9672 942.4309,256.5322 941.8989,257.1032 C941.3659,257.6752 940.5999,257.3012 939.8529,257.0122 C938.6719,256.5532 937.9339,255.0522 935.9889,255.5862 C939.7649,259.0832 943.3689,262.3512 948.7989,264.2122 C947.0969,261.8792 944.4959,261.7432 943.3779,259.7822 C945.3679,259.2682 945.3509,259.2842 946.5019,260.5382 C946.9459,261.0232 947.4699,261.7762 947.9799,261.7962 C950.4709,261.8932 952.1569,263.8662 954.4539,264.3682 C956.7129,264.8622 958.3759,266.1082 959.6799,268.1092 C961.3349,270.6492 964.0709,270.1892 966.4549,269.6422 C968.9079,269.0792 970.7919,269.9512 972.7549,271.0142 C970.9619,271.2962 969.2029,271.7742 967.4899,270.8822 C967.2709,270.7692 966.7869,270.1532 966.6209,270.9822 C966.5319,271.4222 966.6479,271.7182 967.1749,271.8902 C968.7929,272.4182 970.3869,273.0272 972.0239,273.6162 C971.8709,274.9772 970.0619,274.4762 969.8289,275.6132 C973.1729,277.3352 976.9109,275.6772 980.3319,276.8622 C980.8299,277.0352 981.5849,276.9752 981.5409,276.0802 C981.4959,275.1612 980.7419,275.4522 980.2229,275.3912 C978.5139,275.1882 976.6099,275.9572 974.8489,274.2052 C976.5479,273.9602 977.9679,273.5802 976.0879,271.1432 C980.9709,273.8272 985.1249,276.1122 989.2779,278.3962 C989.2429,278.6352 989.2079,278.8742 989.1729,279.1132 C984.9219,277.1472 980.7909,277.9392 976.0909,279.2422 C978.8159,280.9792 981.2649,280.4912 983.6759,280.0552 C985.2519,279.7712 986.7639,279.2302 988.3099,280.2892 C989.0089,280.7682 989.9299,280.8972 989.2329,282.0542 C988.8789,282.6422 989.3659,283.1622 989.7699,283.2152 C991.8829,283.4862 994.1049,284.7552 996.0789,283.0642 C996.7899,282.4542 997.2619,282.7092 997.7839,282.9542 C1003.8799,285.8182 1009.9069,288.8322 1016.0629,291.5552 C1019.9329,293.2682 1023.2259,295.5932 1026.2499,298.5392 C1027.2609,299.5252 1029.2619,299.6292 1030.8489,299.8582 C1033.6009,300.2562 1035.5259,302.9192 1034.4999,305.4442 C1034.0439,306.5662 1033.9089,307.5702 1034.5799,308.4472 C1036.4629,310.9092 1036.0579,314.4762 1038.5449,316.5902 C1039.5249,317.4242 1038.7379,318.2022 1038.5189,318.8062 C1037.4769,321.6892 1038.1269,323.9392 1040.6169,325.7002 C1040.9519,325.9372 1041.2209,326.2732 1041.5019,326.5792 C1041.9919,327.1122 1042.8169,327.5332 1042.5089,328.4242 C1042.0969,329.6132 1041.2059,327.8062 1040.5919,328.8112 C1041.3729,330.1732 1042.4619,331.3332 1043.9699,332.0592 C1046.4719,333.2632 1048.8249,334.7832 1051.5109,335.6002 C1053.9819,336.3532 1054.9169,338.8112 1056.6849,340.3502 C1057.2329,340.8272 1056.6559,341.1692 1056.0989,341.1052 C1055.7849,341.0692 1055.4759,340.8932 1055.1879,340.7372 C1053.8499,340.0082 1052.3499,340.1512 1051.7389,341.3632 C1051.2609,342.3092 1052.2899,343.2712 1053.3009,344.0552 C1055.7919,345.9902 1057.6999,348.6932 1060.8269,349.7682 C1061.3269,349.9402 1061.9889,350.9612 1062.4779,349.9912 C1062.8699,349.2152 1062.2639,348.6672 1061.4449,348.3392 C1059.3369,347.4962 1058.2129,345.6772 1057.0299,343.8432 C1059.0139,343.3352 1062.3749,344.8742 1063.4469,347.2282 C1064.7469,350.0762 1067.2799,351.0132 1069.6629,352.4592 C1072.2439,354.0262 1075.2159,355.3262 1076.5759,358.3892 L1011.5759,358.3892 Z" id="Fill-6" fill="#E9E9E8"></path>
                    <g id="Group-10" transform="translate(1302.000000, 218.436000)">
                        <mask id="mask-4" fill="white">
                            <use xlink:href="#path-3"></use>
                        </mask>
                        <g id="Clip-9"></g>
                        <path d="M119.0759,139.9532 C114.0019,133.9622 108.8999,127.9932 103.8769,121.9592 C102.8439,120.7182 101.4759,119.2942 101.3359,117.8492 C100.7099,111.4512 94.5789,108.8312 92.0649,103.7682 C91.3899,102.4112 90.0699,101.3802 89.0759,100.1752 C87.5669,98.3452 87.7119,97.1182 89.5989,95.9232 C90.5259,95.3362 89.8449,94.8352 89.4489,94.6242 C87.7599,93.7252 86.4229,92.1002 84.1569,92.3242 C83.3879,92.4002 82.1739,91.8802 81.7849,91.2492 C80.0129,88.3792 76.6759,87.4502 74.5279,85.1222 C69.0149,79.1482 62.1609,74.8632 55.8089,69.9322 C50.5709,65.8642 45.2899,61.8422 40.2009,57.5612 C37.1529,54.9982 34.5679,52.0802 31.7299,49.3682 C29.5119,47.2462 27.7099,44.8182 26.1489,42.1932 C25.7399,41.5052 25.5929,40.0822 24.4259,41.6782 C23.9829,42.2832 23.5599,41.6472 23.2309,41.3382 C20.2759,38.5632 16.8579,36.5192 13.2229,34.7602 C10.9669,33.6662 9.2609,32.0122 9.5899,29.1692 C9.7199,28.0532 8.8289,27.6082 8.3029,26.9002 C6.5489,24.5402 4.8359,22.1492 3.0329,19.6692 C4.8079,19.0552 5.3859,21.1402 7.1759,20.7542 C6.1989,18.8162 3.4859,19.0632 2.7879,17.1372 C2.9419,17.0842 3.0969,16.9952 3.2529,16.9882 C4.2949,16.9482 5.5449,18.5972 6.2299,17.1972 C6.6939,16.2532 5.2249,15.3142 4.4099,14.5502 C2.8159,13.0552 2.6049,10.7862 0.9819,9.0802 C1.9759,8.9842 2.6669,8.9182 3.3579,8.8502 C3.5109,8.6482 3.6629,8.4462 3.8139,8.2442 C3.0629,7.7202 2.3019,7.2082 1.5609,6.6682 C-0.2341,5.3572 0.1669,3.3562 0.1949,1.5972 C0.2059,0.9422 1.1079,0.0792 2.2189,0.8452 C4.4729,2.3992 6.8779,3.2052 9.7109,3.5072 C12.1299,3.7642 14.1179,5.8362 15.9279,7.5932 C19.4789,11.0392 22.9389,14.5782 26.4459,18.0702 C27.0989,18.7222 27.9099,19.3562 27.5089,20.3902 C27.0729,21.5102 26.3379,20.6802 25.6989,20.5282 C25.1029,20.3882 25.1669,21.0222 24.9199,21.2992 C24.2399,22.0562 24.9449,22.4272 25.3039,22.9612 C27.5959,26.3892 29.8409,29.8422 33.8729,31.5462 C34.2919,31.7232 34.5679,32.2382 35.3049,33.0092 C33.2529,32.2062 31.7279,31.4272 29.8719,31.4722 C30.6029,33.8852 32.3529,35.7152 34.3679,36.2232 C38.7609,37.3302 41.2289,40.8852 44.5479,43.3032 C48.1349,45.9172 51.5779,48.8012 54.5229,52.1812 C55.4819,53.2812 57.0469,52.7962 58.0589,53.6982 C60.2769,55.6722 62.6619,57.0142 65.7229,57.7052 C68.6309,58.3612 70.3009,61.4632 71.9239,63.8252 C75.6699,69.2762 80.5899,73.4222 85.4679,77.7282 C90.3259,82.0182 94.7999,86.7212 98.6409,92.0192 C101.1889,95.5342 104.1979,98.7192 107.8939,101.2902 C107.6939,100.9312 107.4949,100.5712 107.1369,99.9252 C110.2149,100.7962 111.7839,102.9902 113.0369,105.3482 C114.0149,107.1892 114.8989,109.5122 116.6919,110.1332 C120.0159,111.2862 121.5319,114.5062 124.4719,115.9262 C125.2589,116.3062 125.6629,116.9322 126.1459,117.6292 C129.6979,122.7522 133.9749,127.2802 138.0759,131.9532 C138.0759,134.2032 138.0009,136.4572 138.1079,138.7022 C138.1599,139.7832 137.9009,139.9982 136.8259,139.9852 C130.9099,139.9182 124.9929,139.9532 119.0759,139.9532" id="Fill-8" fill="#E9E9E8" mask="url(#mask-4)"></path>
                    </g>
                    <path d="M1142.7126,323.9302 C1141.4336,323.8452 1140.5366,324.1612 1140.7206,324.7952 C1141.0246,325.8402 1142.2716,326.0182 1143.2176,326.3412 C1143.8016,326.5402 1144.1826,326.1042 1144.0346,325.5082 C1143.8016,324.5602 1143.1666,323.9822 1142.7126,323.9302 Z M1151.3386,330.6322 C1151.2056,329.8082 1150.3656,329.2762 1149.5486,329.2062 C1148.4906,329.1172 1147.8516,330.0962 1147.6456,330.9852 C1147.4036,332.0252 1148.2106,332.3282 1149.1636,332.4092 C1150.3766,332.5142 1151.0146,331.9632 1151.3386,330.6322 Z M1127.0576,323.3452 C1127.6886,323.1872 1128.5346,322.6332 1128.2876,321.9962 C1127.7846,320.7072 1127.4936,319.0042 1125.5736,318.8982 C1124.4836,318.8372 1123.8686,319.5352 1123.6236,320.4642 C1123.3816,321.3842 1125.6326,323.2832 1127.0576,323.3452 Z M1110.0756,331.5152 C1111.0786,334.9462 1113.9066,337.0692 1116.6126,336.8832 C1117.0156,336.8562 1117.4576,336.9022 1117.5426,336.3252 C1117.6256,335.7612 1117.4156,335.1882 1116.9326,335.0972 C1114.4706,334.6342 1112.5716,333.0552 1110.0756,331.5152 Z M1145.7586,338.3942 C1145.5796,337.2772 1145.0896,336.4972 1145.4546,335.3192 C1145.7546,334.3542 1145.1156,333.1382 1143.6326,334.0812 C1143.1606,334.3822 1142.7106,334.3352 1142.2346,334.3852 C1141.3126,334.4812 1139.8816,333.9762 1139.7406,335.2432 C1139.6086,336.4322 1140.6296,337.2902 1141.7746,337.9992 C1143.1116,338.8272 1144.4536,337.3462 1145.7586,338.3942 Z M1170.5326,354.8862 C1171.7976,354.9242 1172.8226,354.6282 1173.1986,353.8672 C1173.6326,352.9932 1172.7726,352.2452 1172.1066,351.6802 C1170.2376,350.0932 1168.3446,348.5342 1166.4356,346.9962 C1164.9906,345.8322 1163.5696,345.6512 1162.3536,347.3302 C1161.9536,347.8832 1161.3306,347.7792 1160.8196,347.9982 C1159.2656,348.6662 1158.9836,350.0772 1160.4436,350.9342 C1163.6666,352.8262 1167.1226,354.2382 1170.5326,354.8862 Z M1124.5756,358.3892 C1123.5466,356.8432 1122.1916,355.8162 1120.3426,355.3372 C1119.2906,355.0652 1118.3086,354.6842 1119.3866,353.0592 C1120.1976,351.8352 1119.1556,350.4482 1118.0636,349.6682 C1112.6176,345.7842 1107.8816,340.9422 1102.3936,337.2392 C1098.1116,334.3492 1097.6886,330.3272 1096.6596,326.2612 C1096.3716,325.1182 1097.6186,324.1882 1098.5846,324.0042 C1100.0826,323.7182 1099.1126,324.9792 1099.3336,325.5382 C1099.9896,327.2012 1101.5926,328.1142 1103.1466,328.8402 C1104.6826,329.5602 1106.3496,330.0002 1107.9576,330.5672 C1108.1846,330.6472 1108.4596,330.8822 1108.6206,330.8172 C1113.2796,328.9412 1116.1566,331.9472 1119.1716,334.6172 C1119.5296,334.9342 1120.0126,335.3372 1120.4226,335.3212 C1121.1576,335.2922 1121.3806,336.7642 1122.2566,335.9132 C1123.0936,335.1012 1122.3446,334.3072 1121.9696,333.6882 C1121.2266,332.4592 1119.9756,331.8052 1118.6226,331.3602 C1117.9316,331.1322 1117.1026,331.0232 1116.6086,330.5662 C1116.0276,330.0302 1114.7546,329.6312 1115.3266,328.4992 C1115.8196,327.5262 1116.6546,328.1522 1117.4726,328.2932 C1120.0416,328.7412 1122.2516,329.8572 1124.3766,331.2872 C1125.0966,331.7722 1126.2916,332.4572 1126.8366,331.6462 C1127.5116,330.6402 1126.0276,330.5452 1125.4966,330.0492 C1123.3996,328.0882 1120.8066,327.4842 1118.1146,326.6432 C1115.7796,325.9132 1113.8756,323.3072 1112.1956,321.1992 C1111.4216,320.2272 1112.6896,319.7442 1113.7346,319.9622 C1117.9396,320.8342 1117.9776,320.8642 1120.0436,317.4392 C1120.6346,316.4592 1121.1666,316.1442 1122.2166,316.7092 C1122.9986,317.1302 1123.8446,317.4742 1124.7016,317.7012 C1125.8176,317.9972 1126.8626,318.2342 1127.6576,316.8162 C1128.3976,315.4972 1129.6296,315.2692 1131.2606,315.6822 C1135.3926,316.7282 1139.4136,318.5652 1143.8836,317.7272 C1145.3446,317.4522 1145.9106,318.9462 1146.6346,319.7892 C1149.1526,322.7262 1151.7006,323.4642 1155.2756,322.0122 C1155.7296,321.8282 1156.1616,321.4872 1156.6226,321.4512 C1157.3246,321.3982 1158.2856,321.0302 1158.6686,321.8542 C1159.0866,322.7512 1158.0876,322.9702 1157.5556,323.3972 C1156.8506,323.9642 1156.2336,324.6482 1155.5056,325.1812 C1153.9706,326.3042 1154.0876,327.4182 1154.5496,329.2722 C1155.4926,333.0522 1157.1596,336.4012 1158.9506,339.7742 C1159.3716,340.5652 1159.5966,341.5762 1159.6196,342.6112 C1159.6636,344.5862 1161.0596,345.3252 1162.8996,344.8342 C1165.4636,344.1522 1167.5836,342.1372 1170.4486,342.3832 C1171.3526,342.4612 1172.5726,342.2792 1172.4846,343.5462 C1172.4096,344.6312 1172.0556,346.1052 1170.5076,346.0132 C1169.0806,345.9292 1169.6846,346.4472 1169.9426,347.0982 C1170.6576,348.8982 1172.6866,349.0212 1173.9016,350.2462 C1174.8836,351.2362 1176.0606,351.7972 1176.1406,353.4912 C1176.1956,354.6722 1177.6916,355.7112 1178.4016,355.6842 C1180.9496,355.5862 1180.2396,357.0632 1180.0756,358.3892 L1144.0756,358.3892 C1142.8916,357.3562 1141.7066,356.3222 1140.3996,355.1812 C1139.6766,356.8952 1140.8366,357.5552 1141.5756,358.3892 L1124.5756,358.3892 Z" id="Fill-11" fill="#E9E9E8"></path>
                    <path d="M1215.2253,217.2457 C1214.4563,215.5197 1213.3823,215.1557 1212.0583,215.4407 C1211.3903,215.5847 1211.4883,216.2137 1211.6953,216.6297 C1212.5363,218.3167 1213.8353,217.2507 1215.2253,217.2457 M1195.9913,224.3017 C1195.7023,223.1437 1195.5583,222.5677 1195.4143,221.9917 C1197.4493,222.3267 1196.5893,219.3087 1198.4573,219.3887 C1200.0143,219.4547 1201.5463,219.5927 1202.7693,218.1097 C1203.4023,217.3427 1204.4513,218.2267 1205.4253,218.3397 C1205.5863,217.0987 1206.6053,216.5057 1207.2423,215.7197 C1209.8273,212.5277 1213.2463,214.1637 1216.1823,213.4107 C1216.9193,213.2217 1217.6213,213.0217 1218.0543,212.4147 C1218.6433,211.5867 1219.4163,211.7397 1219.9913,212.1477 C1220.7183,212.6657 1221.2573,213.4457 1221.8773,214.1127 C1220.8693,214.6337 1220.7763,216.1257 1219.5053,216.3557 C1219.1023,216.4297 1218.6873,216.4337 1218.1673,216.4797 C1218.5793,217.2957 1218.9453,218.0167 1219.3143,218.7457 C1217.9773,219.0237 1216.6633,219.2977 1215.1553,219.6107 C1216.9833,221.7547 1218.9423,223.3487 1221.6393,223.9077 C1223.3663,224.2667 1224.4703,225.7747 1226.0543,226.4397 C1226.7533,226.7327 1226.1283,227.5517 1226.0283,227.6417 C1224.4993,229.0037 1225.5563,230.1107 1226.2463,231.3227 C1226.6563,232.0417 1227.3443,232.6977 1226.6613,233.7667 C1226.1863,234.5077 1227.0433,235.0837 1227.5533,235.6247 C1228.2703,236.3867 1229.2473,236.9937 1229.2463,238.2017 C1226.7373,238.9657 1224.5803,237.8457 1222.3643,237.0847 C1222.4003,240.8417 1224.0823,242.5677 1227.4333,242.3957 C1230.0233,242.2637 1231.3853,244.5807 1233.4223,245.5807 C1234.9363,246.3237 1236.1653,247.6317 1237.5793,248.6027 C1238.1673,249.0067 1238.8093,249.4797 1239.6073,249.3877 C1242.7853,249.0167 1245.0663,250.8317 1247.4693,252.4727 C1248.5923,253.2387 1249.9063,253.9967 1251.2133,254.1777 C1256.8823,254.9637 1261.0453,258.6967 1265.7513,261.3497 C1270.7813,264.1847 1275.4203,267.6747 1280.7553,270.0177 C1282.9553,270.9837 1284.5673,273.1927 1287.0733,273.6027 C1289.1143,273.9367 1291.2083,274.2477 1292.7983,275.5317 C1296.4613,278.4917 1301.0243,280.0167 1304.3303,283.6847 C1307.2423,286.9147 1310.7263,289.6967 1313.7603,292.8717 C1316.2003,295.4237 1317.3173,298.5997 1317.5993,302.1267 C1317.7793,304.3727 1316.3073,305.9037 1315.0933,307.2107 C1314.4683,307.8847 1314.5833,309.7267 1312.9403,309.3737 C1310.7303,308.8977 1308.4573,308.5747 1306.3493,307.8097 C1304.6783,307.2057 1300.8563,307.5727 1299.7493,309.0917 C1299.0893,309.9977 1298.3263,310.5047 1297.3173,310.3557 C1294.5293,309.9447 1291.5673,310.1027 1289.1813,308.1847 C1288.3913,307.5497 1287.7213,306.7237 1286.8293,308.1707 C1286.4903,308.7237 1285.8173,308.1307 1285.2743,307.9737 C1282.0463,307.0387 1278.9683,305.8157 1276.1603,303.9267 C1275.1223,303.2287 1274.0653,302.9037 1273.5323,304.6817 C1273.0303,306.3547 1271.9723,305.0587 1271.4043,304.7677 C1268.6813,303.3757 1266.1823,301.6427 1264.1973,299.2597 C1262.8793,297.6797 1261.4473,297.1347 1259.8323,298.8707 C1259.2283,299.5197 1258.4783,299.5547 1257.7773,299.2307 C1254.4183,297.6837 1251.2083,295.9217 1248.6453,293.1437 C1247.8533,292.2857 1246.7473,290.4747 1245.8853,293.2177 C1245.7303,293.7137 1245.1933,293.9657 1244.6533,293.8707 C1242.1743,293.4357 1239.6923,294.0097 1237.1503,293.5447 C1234.3173,293.0267 1231.3203,293.4157 1228.3943,293.3887 C1227.6053,293.3807 1227.2463,293.9797 1226.7913,294.4337 C1225.7893,295.4347 1224.7913,296.2757 1223.2373,296.4467 C1221.4253,296.6437 1220.5663,298.3847 1219.7643,299.6577 C1218.3523,301.8997 1216.6623,303.8067 1214.7103,305.5317 C1214.0533,306.1127 1214.0903,306.6467 1214.3313,307.4927 C1215.1523,310.3567 1215.0543,310.1417 1212.0233,310.4467 C1208.5313,310.7977 1205.3003,309.9287 1202.0243,309.0967 C1201.2053,308.8887 1200.5983,308.6897 1199.9063,309.5797 C1199.0663,310.6577 1197.5263,310.7317 1196.4473,310.3157 C1192.1293,308.6537 1187.5313,309.2957 1183.1133,308.4667 C1180.2773,307.9337 1177.6773,306.8277 1174.9583,306.0277 C1171.0773,304.8857 1167.6373,302.9067 1164.6413,300.1737 C1163.9073,299.5027 1163.0823,298.8527 1162.8343,297.8657 C1162.3703,296.0097 1161.0883,294.8417 1159.6803,293.7307 C1157.2353,291.8057 1154.8083,289.8577 1152.3623,287.9337 C1152.0463,287.6857 1151.6723,287.5047 1151.3083,287.3297 C1148.2663,285.8717 1148.1383,285.4997 1150.8323,283.0777 C1151.7343,282.2667 1151.5973,281.8717 1151.1303,281.0887 C1150.2543,279.6187 1149.5763,278.0057 1148.5443,276.6587 C1147.3433,275.0917 1147.5083,273.3827 1147.6283,271.6847 C1147.7573,269.8647 1149.2963,270.4687 1150.3523,270.4087 C1152.5883,270.2837 1153.3283,269.4397 1152.0333,268.0257 C1149.4623,265.2197 1148.8163,261.4257 1146.6003,258.4897 C1146.1573,257.9017 1145.6313,257.3647 1145.2563,256.7377 C1144.6183,255.6697 1143.7843,254.7837 1144.4953,253.2107 C1145.5163,250.9467 1143.4523,249.7767 1141.8443,248.3927 C1144.6863,248.4687 1146.6193,246.6237 1149.0523,246.3227 C1149.9713,246.2107 1149.5343,245.3197 1149.2273,244.7177 C1147.4333,241.1957 1146.9633,236.8307 1142.8063,234.8147 C1142.2413,234.5417 1141.8413,233.9087 1141.3963,233.4157 C1141.2513,233.2557 1141.2043,233.0077 1140.8393,232.1857 C1141.8863,233.0167 1142.4583,233.4697 1143.0263,233.9197 C1143.9503,233.3267 1143.4853,232.5047 1143.5653,231.8297 C1143.6613,231.0177 1143.4443,230.6257 1144.8373,230.5927 C1146.7323,230.5487 1146.2473,228.4477 1146.0073,227.1497 C1145.8573,226.3367 1144.7793,225.8877 1146.3143,225.0467 C1146.8723,224.7417 1146.3873,222.3567 1145.6173,221.2817 C1144.5363,219.7747 1145.3773,219.5237 1146.5303,219.1737 C1148.8393,218.4707 1151.3133,219.3757 1153.5933,218.4287 C1153.7553,218.9877 1155.5913,218.3317 1154.4693,220.0137 C1153.5283,221.4247 1155.5323,221.0767 1155.9613,221.1127 C1158.2153,221.3017 1158.1423,221.2367 1158.8123,223.2487 C1159.0193,223.8707 1159.7873,224.8597 1160.4023,224.6167 C1162.2263,223.8957 1163.4863,225.0017 1164.7083,225.7867 C1167.8213,227.7857 1171.0533,226.7707 1174.2583,226.4637 C1175.6203,226.3327 1176.8303,226.4987 1178.0793,227.0867 C1178.8613,227.4547 1179.7743,228.8217 1180.7693,227.1907 C1180.8603,227.0427 1181.7333,227.3267 1182.0893,227.8887 C1182.5723,228.6467 1183.2193,229.3017 1183.8733,230.0937 C1181.7513,231.6317 1179.3603,232.8897 1178.0423,235.3637 C1177.6823,236.0417 1176.8013,236.5197 1177.3813,237.4097 C1178.0003,238.3597 1179.2563,238.9797 1180.0533,238.5217 C1182.1213,237.3357 1183.3923,238.6937 1184.9513,239.4787 C1186.6123,240.3157 1188.1063,241.1477 1190.2763,241.1957 C1192.7573,241.2507 1194.5973,243.7547 1196.0133,245.9007 C1196.7423,247.0047 1197.4793,248.1467 1197.7503,249.6107 C1198.1283,251.6527 1204.9553,254.4317 1206.6343,253.2517 C1207.7543,252.4647 1208.2533,251.0067 1208.0703,249.5287 C1207.8513,247.7637 1209.0523,246.7847 1210.3393,246.9997 C1213.1033,247.4617 1213.0483,245.3497 1213.4713,243.9067 C1213.9833,242.1597 1214.0443,241.8597 1215.8233,242.8927 C1217.8963,244.0977 1219.9283,243.9267 1222.0533,243.3827 C1222.3513,243.3057 1222.6043,243.0577 1223.1013,242.7497 C1221.8933,241.3747 1220.7033,240.1627 1220.4163,238.2397 C1220.1863,236.6907 1216.1263,236.1727 1215.0363,237.3737 C1214.9283,237.4907 1214.8553,237.7627 1214.7703,237.7607 C1211.7863,237.6917 1208.9553,239.8107 1205.8543,238.3097 C1204.3453,237.5807 1204.2153,235.8027 1202.9073,234.8937 C1201.7073,234.0617 1201.0273,232.6907 1199.0623,232.9897 C1198.0063,233.1497 1196.3683,232.7127 1196.8983,230.4427 C1197.1663,229.2977 1195.2893,228.5177 1194.4473,227.5167 C1193.7253,226.6607 1192.8903,226.0917 1193.8523,224.6477 C1194.4883,223.6947 1194.5583,222.7837 1195.9913,224.3017" id="Fill-13" fill="#E9E9E8"></path>
                    <path d="M1195.3533,318.5269 C1193.7493,319.1969 1192.8453,320.1119 1191.6003,319.8709 C1189.7843,319.5189 1188.6343,320.5179 1188.8513,322.0349 C1189.0483,323.4119 1190.8493,323.6679 1192.0613,323.4969 C1192.7043,323.4049 1193.1903,322.9119 1193.5033,323.7559 C1193.6163,324.0549 1194.1523,324.4449 1193.7073,324.7799 C1193.2613,325.1169 1192.6883,324.9649 1192.1283,324.9679 C1188.2463,324.9909 1184.3483,324.5119 1180.4793,325.2039 C1180.1903,325.2559 1179.7063,325.2489 1179.5893,325.0789 C1178.1663,323.0049 1175.8403,322.9209 1173.7323,322.3859 C1173.0093,322.2039 1172.4743,321.7429 1172.2473,321.1729 C1171.7673,319.9769 1170.9573,320.4949 1169.6173,320.4549 C1171.4643,322.1079 1171.8563,324.4889 1174.5013,324.6559 C1175.1863,324.6999 1176.2443,325.1729 1176.0143,326.2719 C1175.7843,327.3739 1174.7893,326.7919 1174.1413,326.8649 C1172.1723,327.0849 1170.3983,326.7679 1169.0133,325.0939 C1167.6433,323.4389 1166.1313,325.0919 1164.6813,325.1119 C1164.4903,325.1139 1164.3273,325.4959 1164.1083,325.5609 C1162.6203,326.0049 1160.5773,326.5529 1159.8023,325.3679 C1158.9303,324.0319 1161.1223,323.6449 1161.9793,322.9679 C1164.3823,321.0689 1166.4123,319.1659 1165.7683,315.6609 C1165.5563,314.5099 1167.9993,313.5179 1169.8203,314.0379 C1170.8913,314.3419 1171.3993,314.6459 1172.3143,313.3069 C1173.3743,311.7569 1175.5173,312.1379 1177.3123,312.8169 C1180.1343,313.8849 1182.9663,314.9409 1186.0453,313.7149 C1186.9163,313.3679 1187.5803,314.1269 1188.2373,314.4689 C1190.5343,315.6659 1192.7473,317.0219 1195.3533,318.5269" id="Fill-15" fill="#E9E9E8"></path>
                    <path d="M1003.3513,72.4723 C997.9973,70.5743 993.2823,67.8933 988.4093,65.5523 C986.2173,64.5003 984.1673,63.0773 981.6273,62.8503 C980.4413,62.7433 980.0713,61.6123 980.4373,60.8853 C980.7643,60.2333 981.2923,59.3073 982.7413,59.6883 C987.6803,60.9843 992.4653,62.7733 997.4283,64.0163 C1000.6873,64.8333 1003.7923,66.4653 1006.7333,68.1413 C1007.1983,68.4063 1008.2813,69.8663 1008.6013,71.1603 C1006.9343,71.7533 1005.8453,69.9473 1004.3373,70.3623 C1003.7053,70.5363 1002.9353,69.3043 1002.4123,70.3983 C1002.0133,71.2293 1003.3113,71.4433 1003.3513,72.4723" id="Fill-17" fill="#E9E9E8"></path>
                    <path d="M839.9988,74.6056 C840.6748,73.6466 842.1098,73.0546 840.4758,71.7726 C840.0588,71.4456 840.6908,69.5996 842.0918,69.4266 C842.7928,69.3396 843.5008,69.4256 844.2518,69.7066 C845.0388,70.0016 846.0188,71.4286 846.7178,70.2546 C847.1898,69.4596 845.7088,69.0876 845.0548,68.5696 C844.7978,68.3656 844.5558,68.1136 844.7038,67.7266 C844.8628,67.3156 845.2768,67.3476 845.5398,67.4176 C847.8198,68.0196 850.1558,67.0266 852.4828,67.8246 C853.8878,68.3066 853.8288,69.5636 854.5488,70.3706 C854.6258,70.4576 854.5478,70.8356 854.5278,70.8366 C853.3118,70.9096 853.1298,72.7296 851.6468,72.4776 C851.0788,72.3806 850.3558,72.7046 849.8168,73.0256 C848.8678,73.5896 847.9778,74.8766 847.3958,72.6686 C847.2638,72.1616 846.4788,72.3096 846.1028,72.6456 C844.4038,74.1606 842.3068,74.3196 839.9988,74.6056" id="Fill-19" fill="#E9E9E8"></path>
                    <path d="M1002.4929,59.2657 C1003.6589,58.5407 1004.1929,59.3687 1004.8779,59.5147 C1005.1869,59.5807 1005.6569,59.9397 1005.7419,59.8547 C1008.2289,57.3507 1009.7559,60.3237 1011.5609,60.9897 C1015.4209,62.4127 1019.1419,64.2117 1022.9159,65.8647 C1023.6289,66.1777 1024.6709,66.4977 1024.0899,67.4877 C1023.6309,68.2707 1022.3469,68.1637 1021.8359,67.7147 C1017.7639,64.1347 1012.4309,63.8797 1007.6409,62.2437 C1005.7389,61.5927 1004.5299,60.0827 1002.4929,59.2657" id="Fill-21" fill="#E9E9E8"></path>
                    <path d="M987.8621,82.8277 C984.1841,81.3077 981.0851,79.2077 977.5451,77.2417 C983.1831,76.2767 988.2741,79.1397 987.8621,82.8277" id="Fill-23" fill="#E9E9E8"></path>
                    <path d="M865.8953,74.794 C864.4293,74.729 863.6533,75.423 863.5723,76.826 C863.5633,76.99 863.6213,77.21 863.5373,77.311 C862.8023,78.193 862.6723,80.077 861.2423,79.753 C859.7953,79.425 860.6313,77.768 860.6663,76.78 C860.7053,75.711 861.1783,74.544 861.7833,73.632 C863.0113,71.778 864.2713,72.135 865.8953,74.794" id="Fill-25" fill="#E9E9E8"></path>
                    <path d="M996.1375,86.4757 C994.2255,85.7457 992.3135,85.0147 989.9825,84.1227 C992.9105,83.4467 994.5895,84.9357 996.1375,86.4757" id="Fill-27" fill="#E9E9E8"></path>
                    <path d="M1020.5037,84.3629 C1020.8167,84.7299 1020.7747,84.8449 1020.5267,84.8849 C1021.1777,86.0009 1021.1677,86.0319 1020.2227,85.9279 C1019.9767,85.9009 1019.7167,85.9399 1019.4837,85.8739 C1018.6727,85.6429 1017.7877,85.5499 1017.1867,84.8819 C1017.1287,84.8189 1017.4377,84.2139 1017.6657,84.1399 C1018.7017,83.8089 1019.5897,84.8519 1020.5037,84.3629" id="Fill-29" fill="#E9E9E8"></path>
                </g>
            </g>
        </g>
    </g>
</svg>
